<?xml version="1.0" encoding="UTF-8" standalone="no"?>
<!DOCTYPE svg PUBLIC "-//W3C//DTD SVG 1.0//EN" "http://www.w3.org/TR/2001/PR-SVG-20010719/DTD/svg10.dtd">
<svg width="31cm" height="16cm" viewBox="58 67 614 316" xmlns="http://www.w3.org/2000/svg" xmlns:xlink="http://www.w3.org/1999/xlink">
  <g id="Background">
    <g>
      <rect style="fill: #ffffff; fill-opacity: 1" x="61.625" y="139" width="80.75" height="44"/>
      <rect style="fill: none; stroke-opacity: 1; stroke-width: 1.8; stroke: #000000" x="61.625" y="139" width="80.75" height="44"/>
      <line style="fill: none; stroke-opacity: 1; stroke-width: 1.8; stroke: #000000" x1="68.625" y1="139" x2="68.625" y2="183"/>
      <line style="fill: none; stroke-opacity: 1; stroke-width: 1.8; stroke: #000000" x1="75.625" y1="139" x2="75.625" y2="183"/>
      <text font-size="11.2" style="fill: #000000; fill-opacity: 1;text-anchor:middle;font-family:sans-serif;font-style:normal;font-weight:700" x="106" y="157.4">
        <tspan x="106" y="157.4">Model</tspan>
        <tspan x="106" y="171.4">builder</tspan>
      </text>
    </g>
    <g>
      <rect style="fill: #ffffff; fill-opacity: 1" x="195.658" y="68" width="72.6844" height="44"/>
      <rect style="fill: none; stroke-opacity: 1; stroke-width: 1.8; stroke: #000000" x="195.658" y="68" width="72.6844" height="44"/>
      <text font-size="11.2" style="fill: #000000; fill-opacity: 1;text-anchor:middle;font-family:sans-serif;font-style:normal;font-weight:700" x="236" y="86.4">
        <tspan x="236" y="86.4">Input</tspan>
        <tspan x="236" y="100.4">clerk</tspan>
      </text>
    </g>
    <g>
      <rect style="fill: #ffffff; fill-opacity: 1" x="59.025" y="280" width="89.95" height="44"/>
      <rect style="fill: none; stroke-opacity: 1; stroke-width: 1.8; stroke: #000000" x="59.025" y="280" width="89.95" height="44"/>
      <line style="fill: none; stroke-opacity: 1; stroke-width: 1.8; stroke: #000000" x1="66.025" y1="280" x2="66.025" y2="324"/>
      <line style="fill: none; stroke-opacity: 1; stroke-width: 1.8; stroke: #000000" x1="73.025" y1="280" x2="73.025" y2="324"/>
      <text font-size="11.2" style="fill: #000000; fill-opacity: 1;text-anchor:middle;font-family:sans-serif;font-style:normal;font-weight:700" x="108" y="298.4">
        <tspan x="108" y="298.4">Text</tspan>
        <tspan x="108" y="312.4">analyser</tspan>
      </text>
    </g>
    <g>
      <rect style="fill: #ffffff; fill-opacity: 1" x="241.601" y="190" width="74.8" height="44"/>
      <rect style="fill: none; stroke-opacity: 1; stroke-width: 1.8; stroke: #000000" x="241.601" y="190" width="74.8" height="44"/>
      <line style="fill: none; stroke-opacity: 1; stroke-width: 1.8; stroke: #000000" x1="248.601" y1="190" x2="248.601" y2="234"/>
      <text font-size="11.2" style="fill: #000000; fill-opacity: 1;text-anchor:middle;font-family:sans-serif;font-style:normal;font-weight:700" x="283.001" y="208.4">
        <tspan x="283.001" y="208.4">Bible</tspan>
        <tspan x="283.001" y="222.4">model</tspan>
      </text>
    </g>
    <g>
      <rect style="fill: #ffffff; fill-opacity: 1" x="234.25" y="274" width="87.4992" height="44"/>
      <rect style="fill: none; stroke-opacity: 1; stroke-width: 1.8; stroke: #000000" x="234.25" y="274" width="87.4992" height="44"/>
      <text font-size="11.2" style="fill: #000000; fill-opacity: 1;text-anchor:middle;font-family:sans-serif;font-style:normal;font-weight:700" x="282" y="292.4">
        <tspan x="282" y="292.4">Screen</tspan>
        <tspan x="282" y="306.4">display</tspan>
      </text>
    </g>
    <g>
      <rect style="fill: #ffffff; fill-opacity: 1" x="245.35" y="352" width="75.3" height="30"/>
      <rect style="fill: none; stroke-opacity: 1; stroke-width: 1.8; stroke: #000000" x="245.35" y="352" width="75.3" height="30"/>
      <text font-size="11.2" style="fill: #000000; fill-opacity: 1;text-anchor:middle;font-family:sans-serif;font-style:normal;font-weight:700" x="287" y="370.4">
        <tspan x="287" y="370.4">Scolar</tspan>
      </text>
    </g>
    <g>
      <rect style="fill: #ffffff; fill-opacity: 1" x="340.665" y="68" width="94.6711" height="44"/>
      <rect style="fill: none; stroke-opacity: 1; stroke-width: 1.8; stroke: #000000" x="340.665" y="68" width="94.6711" height="44"/>
      <text font-size="11.2" style="fill: #000000; fill-opacity: 1;text-anchor:middle;font-family:sans-serif;font-style:normal;font-weight:700" x="392" y="86.4">
        <tspan x="392" y="86.4">Tyndale's</tspan>
        <tspan x="392" y="100.4">bible</tspan>
      </text>
    </g>
    <g>
      <ellipse style="fill: #ffffff; fill-opacity: 1" cx="574.3" cy="305" rx="46.3" ry="28"/>
      <ellipse style="fill: none; stroke-opacity: 1; stroke-width: 1.8; stroke-dasharray: 10; stroke: #000000" cx="574.3" cy="305" rx="46.3" ry="28"/>
      <text font-size="11.2" style="fill: #000000; fill-opacity: 1;text-anchor:middle;font-family:sans-serif;font-style:normal;font-weight:normal" x="574.3" y="301.4">
        <tspan x="574.3" y="301.4">Model</tspan>
        <tspan x="574.3" y="315.4">answers</tspan>
      </text>
    </g>
    <g>
      <ellipse style="fill: #ffffff; fill-opacity: 1" cx="584.854" cy="131.951" rx="86.8535" ry="28.9512"/>
      <ellipse style="fill: none; stroke-opacity: 1; stroke-width: 1.8; stroke-dasharray: 10; stroke: #000000" cx="584.854" cy="131.951" rx="86.8535" ry="28.9512"/>
      <text font-size="11.2" style="fill: #000000; fill-opacity: 1;text-anchor:middle;font-family:sans-serif;font-style:normal;font-weight:normal" x="584.854" y="128.351">
        <tspan x="584.854" y="128.351">Model-Bible</tspan>
        <tspan x="584.854" y="142.351">correspondence</tspan>
      </text>
    </g>
    <line style="fill: none; stroke-opacity: 1; stroke-width: 1.8; stroke: #000000" x1="195.658" y1="90" x2="141.164" y2="161"/>
    <line style="fill: none; stroke-opacity: 1; stroke-width: 1.8; stroke: #000000" x1="434.924" y1="90" x2="498" y2="132.168"/>
    <line style="fill: none; stroke-opacity: 1; stroke-width: 1.8; stroke: #000000" x1="234.25" y1="296" x2="147.75" y2="302"/>
    <line style="fill: none; stroke-opacity: 1; stroke-width: 1.8; stroke: #000000" x1="245.6" y1="367" x2="147.75" y2="302"/>
    <line style="fill: none; stroke-opacity: 1; stroke-width: 1.8; stroke: #000000" x1="242.306" y1="212" x2="147.75" y2="302"/>
    <line style="fill: none; stroke-opacity: 1; stroke-width: 1.8; stroke: #000000" x1="315.696" y1="212" x2="528" y2="305"/>
    <line style="fill: none; stroke-opacity: 1; stroke-width: 1.8; stroke: #000000" x1="321.75" y1="296" x2="528" y2="305"/>
    <line style="fill: none; stroke-opacity: 1; stroke-width: 1.8; stroke: #000000" x1="320.4" y1="367" x2="528" y2="305"/>
    <line style="fill: none; stroke-opacity: 1; stroke-width: 1.8; stroke: #000000" x1="242.306" y1="212" x2="141.164" y2="161"/>
    <line style="fill: none; stroke-opacity: 1; stroke-width: 1.8; stroke: #000000" x1="315.696" y1="212" x2="498" y2="132.168"/>
    <line style="fill: none; stroke-opacity: 1; stroke-width: 1.8; stroke: #000000" x1="341.076" y1="90" x2="268.342" y2="90"/>
  </g>
</svg>
