<?xml version="1.0" encoding="UTF-8"?><svg xmlns="http://www.w3.org/2000/svg" xmlns:xlink="http://www.w3.org/1999/xlink" fill-opacity="1" color-rendering="auto" color-interpolation="auto" text-rendering="auto" stroke="black" stroke-linecap="square" width="262" stroke-miterlimit="10" shape-rendering="auto" stroke-opacity="1" fill="black" stroke-dasharray="none" font-weight="normal" stroke-width="1" height="66" font-family="'Dialog'" font-style="normal" stroke-linejoin="miter" font-size="12px" stroke-dashoffset="0" image-rendering="auto">
  <!--Generated by ySVG 2.5-->
  <defs id="genericDefs"/>
  <g>
    <defs id="defs1">
      <clipPath clipPathUnits="userSpaceOnUse" id="clipPath1">
        <path d="M0 0 L262 0 L262 66 L0 66 L0 0 Z"/>
      </clipPath>
      <clipPath clipPathUnits="userSpaceOnUse" id="clipPath2">
        <path d="M440 213 L702 213 L702 279 L440 279 L440 213 Z"/>
      </clipPath>
    </defs>
    <g fill="white" text-rendering="geometricPrecision" shape-rendering="geometricPrecision" transform="translate(-440,-213)" stroke="white">
      <rect x="440" width="262" height="66" y="213" clip-path="url(#clipPath2)" stroke="none"/>
    </g>
    <g fill="rgb(255,204,0)" text-rendering="geometricPrecision" shape-rendering="geometricPrecision" transform="matrix(1,0,0,1,-440,-213)" stroke="rgb(255,204,0)">
      <ellipse rx="41" ry="18" clip-path="url(#clipPath2)" cx="496" cy="246" stroke="none"/>
    </g>
    <g font-size="13px" stroke-linecap="butt" transform="matrix(1,0,0,1,-440,-213)" text-rendering="geometricPrecision" font-family="sans-serif" shape-rendering="geometricPrecision" stroke-miterlimit="1.45">
      <text x="465.8835" xml:space="preserve" y="250.5005" clip-path="url(#clipPath2)" stroke="none">Use Case</text>
      <ellipse rx="41" fill="none" ry="18" clip-path="url(#clipPath2)" cx="496" cy="246"/>
    </g>
    <g fill="rgb(255,204,0)" text-rendering="geometricPrecision" shape-rendering="geometricPrecision" transform="matrix(1,0,0,1,-440,-213)" stroke="rgb(255,204,0)">
      <ellipse rx="37" ry="18" clip-path="url(#clipPath2)" cx="650" cy="246" stroke="none"/>
    </g>
    <g font-size="13px" stroke-linecap="butt" transform="matrix(1,0,0,1,-440,-213)" text-rendering="geometricPrecision" font-family="sans-serif" shape-rendering="geometricPrecision" stroke-miterlimit="1.45">
      <text x="619.8835" xml:space="preserve" y="250.5005" clip-path="url(#clipPath2)" stroke="none">Use Case</text>
      <ellipse rx="37" fill="none" ry="18" clip-path="url(#clipPath2)" cx="650" cy="246"/>
      <path fill="none" d="M537 246 L613 246" clip-path="url(#clipPath2)"/>
    </g>
  </g>
</svg>
