<?xml version="1.0" encoding="UTF-8"?><svg xmlns="http://www.w3.org/2000/svg" xmlns:xlink="http://www.w3.org/1999/xlink" fill-opacity="1" color-rendering="auto" color-interpolation="auto" text-rendering="auto" stroke="black" stroke-linecap="square" width="713" stroke-miterlimit="10" shape-rendering="auto" stroke-opacity="1" fill="black" stroke-dasharray="none" font-weight="normal" stroke-width="1" height="500" font-family="'Dialog'" font-style="normal" stroke-linejoin="miter" font-size="12px" stroke-dashoffset="0" image-rendering="auto">
  <!--Generated by ySVG 2.5-->
  <defs id="genericDefs"/>
  <g>
    <g fill="white" text-rendering="geometricPrecision" shape-rendering="geometricPrecision" transform="scale(0.5271,0.5271) translate(-183,-308)" stroke="white">
      <rect x="183" width="1353" height="949" y="308" clip-path="url(#clipPath2)" stroke="none"/>
    </g>
    <g fill="white" text-rendering="geometricPrecision" shape-rendering="geometricPrecision" transform="matrix(0.5271,0,0,0.5271,-96.4615,-162.3506)" stroke="white">
      <ellipse rx="50.6637" ry="26.2752" clip-path="url(#clipPath2)" cx="678.4313" cy="419.1465" stroke="none"/>
    </g>
    <g font-size="11px" stroke-linecap="butt" transform="matrix(0.5271,0,0,0.5271,-96.4615,-162.3506)" text-rendering="geometricPrecision" font-family="sans-serif" shape-rendering="geometricPrecision" stroke-miterlimit="1.45">
      <text x="631.2194" xml:space="preserve" y="416.5523" clip-path="url(#clipPath2)" stroke="none">CU-02 Autenticar</text>
      <text x="657.5297" xml:space="preserve" y="429.357" clip-path="url(#clipPath2)" stroke="none">Usuario</text>
      <ellipse rx="50.6637" fill="none" ry="26.2752" clip-path="url(#clipPath2)" cx="678.4313" cy="419.1465"/>
      <rect fill="none" x="435.557" width="703.8129" height="953.7658" y="329.8693" clip-path="url(#clipPath2)"/>
    </g>
    <g text-rendering="geometricPrecision" shape-rendering="geometricPrecision" transform="matrix(0.3618,0,0,0.2817,157.9416,48.957)">
      <g clip-path="url(#clipPath3)">
        <svg xmlns:svg="http://www.w3.org/2000/svg" xmlns:sodipodi="http://sodipodi.sourceforge.net/DTD/sodipodi-0.dtd" xmlns:inkscape="http://www.inkscape.org/namespaces/inkscape" xmlns:dc="http://purl.org/dc/elements/1.1/" xmlns:cc="http://web.resource.org/cc/" xmlns:rdf="http://www.w3.org/1999/02/22-rdf-syntax-ns#" opacity="1" writing-mode="lr-tb" stop-color="rgb(0, 0, 0)" shape-rendering="auto" glyph-orientation-horizontal="0deg" color-profile="auto" lighting-color="rgb(255, 255, 255)" color="rgb(0, 0, 0)" font-weight="400" alignment-baseline="auto" font-style="normal" version="1.0" color-interpolation-filters="linearrgb" text-anchor="start" stroke-linecap="butt" color-interpolation="srgb" font-variant="normal" word-spacing="normal" fill-opacity="1" text-rendering="auto" clip-path="none" text-decoration="none" letter-spacing="normal" glyph-orientation-vertical="auto" display="inline" font-size-adjust="none" overflow="visible" fill="rgb(0, 0, 0)" font-stretch="normal" stroke-dasharray="none" inkscape:version="0.45.1" id="svg1.svg2" stroke-miterlimit="4" stop-opacity="1" color-rendering="auto" font-size="12" sodipodi:docbase="C:\Daten\alberts\projects\yfx" pointer-events="visiblepainted" mask="none" direction="ltr" baseline-shift="baseline" sodipodi:docname="uml_actor.svg" enable-background="accumulate" fill-rule="nonzero" image-rendering="auto" stroke-dashoffset="0" inkscape:output_extension="org.inkscape.output.svg.inkscape" marker-end="none" width="41" clip="auto" cursor="auto" stroke="none" filter="none" visibility="visible" kerning="auto" stroke-width="1" font-family="&quot;Arial&quot;,&quot;Helvetica&quot;,sans-serif" flood-opacity="1" clip-rule="nonzero" src="none" height="68.997391" unicode-bidi="normal" sodipodi:version="0.32" stroke-linejoin="miter" stroke-opacity="1" flood-color="rgb(0, 0, 0)" dominant-baseline="auto" marker-start="none" marker-mid="none">
  <defs id="svg1.defs4">
            <clipPath clipPathUnits="userSpaceOnUse" id="clipPath1">
              <path d="M0 0 L713 0 L713 500 L0 500 L0 0 Z"/>
            </clipPath>
            <clipPath clipPathUnits="userSpaceOnUse" id="clipPath2">
              <path d="M183 308 L1535.6531 308 L1535.6531 1256.5646 L183 1256.5646 L183 308 Z"/>
            </clipPath>
            <clipPath clipPathUnits="userSpaceOnUse" id="clipPath3">
              <path d="M-436.4871 -173.8106 L1533.9578 -173.8106 L1533.9578 1601.3234 L-436.4871 1601.3234 L-436.4871 -173.8106 Z"/>
            </clipPath>
            <clipPath clipPathUnits="userSpaceOnUse" id="clipPath4">
              <path d="M-436.4871 -416.7845 L1533.9578 -416.7845 L1533.9578 1358.3494 L-436.4871 1358.3494 L-436.4871 -416.7845 Z"/>
            </clipPath>
            <clipPath clipPathUnits="userSpaceOnUse" id="clipPath5">
              <path d="M-444.7428 -1042.2753 L1525.702 -1042.2753 L1525.702 732.8586 L-444.7428 732.8586 L-444.7428 -1042.2753 Z"/>
            </clipPath>
          </defs>
  
  <metadata id="svg1.metadata7">
    
  </metadata>
  <g inkscape:groupmode="layer" id="svg1.layer1" transform="translate(-29.5,-42.959476)" inkscape:label="Ebene 1">
    <a id="svg1.a3142" transform="matrix(1.0873906,0,0,1,-4.4741999,0)">
      <path transform="translate(11.586889,5.2908993)" style="fill:none;fill-rule:evenodd;stroke:#000000;stroke-width:1px;stroke-linecap:butt;stroke-linejoin:miter;stroke-opacity:1" sodipodi:cx="38.509369" sodipodi:cy="47.36993" sodipodi:rx="8.5197716" id="svg1.path2160" d="M 47.02914 47.36993 A 8.5197716 9.2013531 0 1 1  29.989597,47.36993 A 8.5197716 9.2013531 0 1 1  47.02914 47.36993 z" sodipodi:ry="9.2013531" sodipodi:type="arc"/>
    </a>
    <path style="fill:none" sodipodi:cx="43.962021" sodipodi:cy="48.392303" d="M 47.71072 48.392303 A 3.7486994 0 0 1 1  40.213321,48.392303 A 3.7486994 0 0 1 1  47.71072 48.392303 z" id="svg1.path3134" sodipodi:rx="3.7486994" sodipodi:ry="0" sodipodi:type="arc"/>
    <path style="fill:none;fill-rule:evenodd;stroke:#000000;stroke-width:1.24319649px;stroke-linecap:butt;stroke-linejoin:miter;stroke-opacity:1" d="M 50,61.33709 C 50,91.363211 50,92.247838 50,92.247838" id="svg1.path3136"/>
    <path style="fill:none;fill-rule:evenodd;stroke:#000000;stroke-width:1px;stroke-linecap:butt;stroke-linejoin:miter;stroke-opacity:1" d="M 69.760668,72.362183 C 69.760668,72.362183 69.760668,72.362183 50.239332,72.362183 C 30.239332,72.362183 30.239332,72.362183 30.239332,72.362183 L 30.239332,72.362183" id="svg1.path3138"/>
    <path style="fill:none;fill-rule:evenodd;stroke:#000000;stroke-width:1px;stroke-linecap:butt;stroke-linejoin:miter;stroke-opacity:1" d="M 30,111.45687 C 30,111.45687 30,111.45687 50,92.013532 C 70,111.45687 70,111.45687 70,111.45687" id="svg1.path3140"/>
  </g>
</svg>
      </g>
    </g>
    <g font-size="11px" stroke-linecap="butt" transform="matrix(0.5271,0,0,0.5271,-96.4615,-162.3506)" text-rendering="geometricPrecision" font-family="sans-serif" shape-rendering="geometricPrecision" stroke-miterlimit="1.45">
      <text x="475.8068" xml:space="preserve" y="453.8822" clip-path="url(#clipPath2)" stroke="none">Usuario</text>
      <text x="454.2714" xml:space="preserve" y="466.6869" clip-path="url(#clipPath2)" stroke="none">No Autenticado</text>
    </g>
    <g fill="white" text-rendering="geometricPrecision" shape-rendering="geometricPrecision" transform="matrix(0.5271,0,0,0.5271,-96.4615,-162.3506)" stroke="white">
      <ellipse rx="39.7262" ry="22.5252" clip-path="url(#clipPath2)" cx="678.4313" cy="656.1561" stroke="none"/>
    </g>
    <g font-size="11px" stroke-linecap="butt" transform="matrix(0.5271,0,0,0.5271,-96.4615,-162.3506)" text-rendering="geometricPrecision" font-family="sans-serif" shape-rendering="geometricPrecision" stroke-miterlimit="1.45">
      <text x="644.7169" xml:space="preserve" y="653.5619" clip-path="url(#clipPath2)" stroke="none">CU-03 Crear</text>
      <text x="665.597" xml:space="preserve" y="666.3666" clip-path="url(#clipPath2)" stroke="none">Ruta</text>
      <ellipse rx="39.7262" fill="none" ry="22.5252" clip-path="url(#clipPath2)" cx="678.4313" cy="656.1561"/>
    </g>
    <g fill="white" text-rendering="geometricPrecision" shape-rendering="geometricPrecision" transform="matrix(0.5271,0,0,0.5271,-96.4615,-162.3506)" stroke="white">
      <ellipse rx="39.7262" ry="22.5252" clip-path="url(#clipPath2)" cx="678.4313" cy="753.5331" stroke="none"/>
    </g>
    <g font-size="11px" stroke-linecap="butt" transform="matrix(0.5271,0,0,0.5271,-96.4615,-162.3506)" text-rendering="geometricPrecision" font-family="sans-serif" shape-rendering="geometricPrecision" stroke-miterlimit="1.45">
      <text x="641.0538" xml:space="preserve" y="750.9388" clip-path="url(#clipPath2)" stroke="none">CU-04 Buscar</text>
      <text x="662.7316" xml:space="preserve" y="763.7435" clip-path="url(#clipPath2)" stroke="none">Rutas</text>
      <ellipse rx="39.7262" fill="none" ry="22.5252" clip-path="url(#clipPath2)" cx="678.4313" cy="753.5331"/>
    </g>
    <g fill="white" text-rendering="geometricPrecision" shape-rendering="geometricPrecision" transform="matrix(0.5271,0,0,0.5271,-96.4615,-162.3506)" stroke="white">
      <ellipse rx="50.6637" ry="18.5252" clip-path="url(#clipPath2)" cx="857.3463" cy="753.5331" stroke="none"/>
    </g>
    <g font-size="11px" stroke-linecap="butt" transform="matrix(0.5271,0,0,0.5271,-96.4615,-162.3506)" text-rendering="geometricPrecision" font-family="sans-serif" shape-rendering="geometricPrecision" stroke-miterlimit="1.45">
      <text x="812.3902" xml:space="preserve" y="750.9388" clip-path="url(#clipPath2)" stroke="none">CU-05 Consultar</text>
      <text x="844.512" xml:space="preserve" y="763.7435" clip-path="url(#clipPath2)" stroke="none">Ruta</text>
      <ellipse rx="50.6637" fill="none" ry="18.5252" clip-path="url(#clipPath2)" cx="857.3463" cy="753.5331"/>
    </g>
    <g fill="white" text-rendering="geometricPrecision" shape-rendering="geometricPrecision" transform="matrix(0.5271,0,0,0.5271,-96.4615,-162.3506)" stroke="white">
      <ellipse rx="50.6637" ry="22.5252" clip-path="url(#clipPath2)" cx="678.4313" cy="548.9826" stroke="none"/>
    </g>
    <g font-size="11px" stroke-linecap="butt" transform="matrix(0.5271,0,0,0.5271,-96.4615,-162.3506)" text-rendering="geometricPrecision" font-family="sans-serif" shape-rendering="geometricPrecision" stroke-miterlimit="1.45">
      <text x="634.6945" xml:space="preserve" y="546.3884" clip-path="url(#clipPath2)" stroke="none">CU-01 Registrar</text>
      <text x="657.5297" xml:space="preserve" y="559.1931" clip-path="url(#clipPath2)" stroke="none">Usuario</text>
      <ellipse rx="50.6637" fill="none" ry="22.5252" clip-path="url(#clipPath2)" cx="678.4313" cy="548.9826"/>
    </g>
    <g fill="white" text-rendering="geometricPrecision" shape-rendering="geometricPrecision" transform="matrix(0.5271,0,0,0.5271,-96.4615,-162.3506)" stroke="white">
      <ellipse rx="50.6637" ry="18.5252" clip-path="url(#clipPath2)" cx="958.6738" cy="481.9322" stroke="none"/>
    </g>
    <g font-size="11px" stroke-linecap="butt" transform="matrix(0.5271,0,0,0.5271,-96.4615,-162.3506)" text-rendering="geometricPrecision" font-family="sans-serif" shape-rendering="geometricPrecision" stroke-miterlimit="1.45">
      <text x="914.8268" xml:space="preserve" y="479.3379" clip-path="url(#clipPath2)" stroke="none">CU-11 Modificar</text>
      <text x="924.0598" xml:space="preserve" y="492.1426" clip-path="url(#clipPath2)" stroke="none">Fechas Viaje</text>
      <ellipse rx="50.6637" fill="none" ry="18.5252" clip-path="url(#clipPath2)" cx="958.6738" cy="481.9322"/>
    </g>
    <g fill="white" text-rendering="geometricPrecision" shape-rendering="geometricPrecision" transform="matrix(0.5271,0,0,0.5271,-96.4615,-162.3506)" stroke="white">
      <ellipse rx="50.6637" ry="18.5252" clip-path="url(#clipPath2)" cx="1047.1988" cy="548.9826" stroke="none"/>
    </g>
    <g font-size="11px" stroke-linecap="butt" transform="matrix(0.5271,0,0,0.5271,-96.4615,-162.3506)" text-rendering="geometricPrecision" font-family="sans-serif" shape-rendering="geometricPrecision" stroke-miterlimit="1.45">
      <text x="1003.3519" xml:space="preserve" y="546.3884" clip-path="url(#clipPath2)" stroke="none">CU-11 Modificar</text>
      <text x="1018.5628" xml:space="preserve" y="559.1931" clip-path="url(#clipPath2)" stroke="none">Privacidad</text>
      <ellipse rx="50.6637" fill="none" ry="18.5252" clip-path="url(#clipPath2)" cx="1047.1988" cy="548.9826"/>
    </g>
    <g fill="white" text-rendering="geometricPrecision" shape-rendering="geometricPrecision" transform="matrix(0.5271,0,0,0.5271,-96.4615,-162.3506)" stroke="white">
      <ellipse rx="50.6637" ry="18.5252" clip-path="url(#clipPath2)" cx="857.3463" cy="875.4713" stroke="none"/>
    </g>
    <g font-size="11px" stroke-linecap="butt" transform="matrix(0.5271,0,0,0.5271,-96.4615,-162.3506)" text-rendering="geometricPrecision" font-family="sans-serif" shape-rendering="geometricPrecision" stroke-miterlimit="1.45">
      <text x="812.3902" xml:space="preserve" y="872.8771" clip-path="url(#clipPath2)" stroke="none">CU-11 Consultar</text>
      <text x="832.3841" xml:space="preserve" y="885.6818" clip-path="url(#clipPath2)" stroke="none">Itinerario</text>
      <ellipse rx="50.6637" fill="none" ry="18.5252" clip-path="url(#clipPath2)" cx="857.3463" cy="875.4713"/>
    </g>
    <g fill="white" text-rendering="geometricPrecision" shape-rendering="geometricPrecision" transform="matrix(0.5271,0,0,0.5271,-96.4615,-162.3506)" stroke="white">
      <ellipse rx="50.6637" ry="18.5252" clip-path="url(#clipPath2)" cx="857.3463" cy="548.9826" stroke="none"/>
    </g>
    <g font-size="11px" stroke-linecap="butt" transform="matrix(0.5271,0,0,0.5271,-96.4615,-162.3506)" text-rendering="geometricPrecision" font-family="sans-serif" shape-rendering="geometricPrecision" stroke-miterlimit="1.45">
      <text x="819.9849" xml:space="preserve" y="546.3884" clip-path="url(#clipPath2)" stroke="none">CU-11 Mostar</text>
      <text x="833.6597" xml:space="preserve" y="559.1931" clip-path="url(#clipPath2)" stroke="none">En Mapa</text>
      <ellipse rx="50.6637" fill="none" ry="18.5252" clip-path="url(#clipPath2)" cx="857.3463" cy="548.9826"/>
    </g>
    <g fill="white" text-rendering="geometricPrecision" shape-rendering="geometricPrecision" transform="matrix(0.5271,0,0,0.5271,-96.4615,-162.3506)" stroke="white">
      <ellipse rx="61.2887" ry="26.2752" clip-path="url(#clipPath2)" cx="683.7463" cy="875.4713" stroke="none"/>
    </g>
    <g font-size="11px" stroke-linecap="butt" transform="matrix(0.5271,0,0,0.5271,-96.4615,-162.3506)" text-rendering="geometricPrecision" font-family="sans-serif" shape-rendering="geometricPrecision" stroke-miterlimit="1.45">
      <text x="639.381" xml:space="preserve" y="872.8771" clip-path="url(#clipPath2)" stroke="none">CU-08 Asignar y</text>
      <text x="629.2189" xml:space="preserve" y="885.6818" clip-path="url(#clipPath2)" stroke="none">Desasignar Lugares</text>
      <ellipse rx="61.2887" fill="none" ry="26.2752" clip-path="url(#clipPath2)" cx="683.7463" cy="875.4713"/>
    </g>
    <g fill="white" text-rendering="geometricPrecision" shape-rendering="geometricPrecision" transform="matrix(0.5271,0,0,0.5271,-96.4615,-162.3506)" stroke="white">
      <ellipse rx="50.6637" ry="18.5252" clip-path="url(#clipPath2)" cx="683.7463" cy="971.8709" stroke="none"/>
    </g>
    <g font-size="11px" stroke-linecap="butt" transform="matrix(0.5271,0,0,0.5271,-96.4615,-162.3506)" text-rendering="geometricPrecision" font-family="sans-serif" shape-rendering="geometricPrecision" stroke-miterlimit="1.45">
      <text x="638.7902" xml:space="preserve" y="969.2766" clip-path="url(#clipPath2)" stroke="none">CU-09 Consultar</text>
      <text x="661.8242" xml:space="preserve" y="982.0813" clip-path="url(#clipPath2)" stroke="none">Lugares</text>
      <ellipse rx="50.6637" fill="none" ry="18.5252" clip-path="url(#clipPath2)" cx="683.7463" cy="971.8709"/>
    </g>
    <g fill="white" text-rendering="geometricPrecision" shape-rendering="geometricPrecision" transform="matrix(0.5271,0,0,0.5271,-96.4615,-162.3506)" stroke="white">
      <ellipse rx="50.6637" ry="18.5252" clip-path="url(#clipPath2)" cx="683.7463" cy="1066.9562" stroke="none"/>
    </g>
    <g font-size="11px" stroke-linecap="butt" transform="matrix(0.5271,0,0,0.5271,-96.4615,-162.3506)" text-rendering="geometricPrecision" font-family="sans-serif" shape-rendering="geometricPrecision" stroke-miterlimit="1.45">
      <text x="644.1237" xml:space="preserve" y="1064.3619" clip-path="url(#clipPath2)" stroke="none">CU-10 Mostrar</text>
      <text x="636.3893" xml:space="preserve" y="1077.1666" clip-path="url(#clipPath2)" stroke="none">Lugares En Mapa</text>
      <ellipse rx="50.6637" fill="none" ry="18.5252" clip-path="url(#clipPath2)" cx="683.7463" cy="1066.9562"/>
    </g>
    <g fill="white" text-rendering="geometricPrecision" shape-rendering="geometricPrecision" transform="matrix(0.5271,0,0,0.5271,-96.4615,-162.3506)" stroke="white">
      <ellipse rx="61.2887" ry="26.2752" clip-path="url(#clipPath2)" cx="1057.8238" cy="867.7213" stroke="none"/>
    </g>
    <g font-size="11px" stroke-linecap="butt" transform="matrix(0.5271,0,0,0.5271,-96.4615,-162.3506)" text-rendering="geometricPrecision" font-family="sans-serif" shape-rendering="geometricPrecision" stroke-miterlimit="1.45">
      <text x="1011.7103" xml:space="preserve" y="865.1271" clip-path="url(#clipPath2)" stroke="none">CU-06 Asignar y </text>
      <text x="1003.232" xml:space="preserve" y="877.9318" clip-path="url(#clipPath2)" stroke="none">Desasignar Eventos</text>
      <ellipse rx="61.2887" fill="none" ry="26.2752" clip-path="url(#clipPath2)" cx="1057.8238" cy="867.7213"/>
    </g>
    <g fill="white" text-rendering="geometricPrecision" shape-rendering="geometricPrecision" transform="matrix(0.5271,0,0,0.5271,-96.4615,-162.3506)" stroke="white">
      <ellipse rx="50.6637" ry="18.5252" clip-path="url(#clipPath2)" cx="1057.8238" cy="753.5331" stroke="none"/>
    </g>
    <g font-size="11px" stroke-linecap="butt" transform="matrix(0.5271,0,0,0.5271,-96.4615,-162.3506)" text-rendering="geometricPrecision" font-family="sans-serif" shape-rendering="geometricPrecision" stroke-miterlimit="1.45">
      <text x="1012.8677" xml:space="preserve" y="750.9388" clip-path="url(#clipPath2)" stroke="none">CU-07 Consultar</text>
      <text x="1035.8372" xml:space="preserve" y="763.7435" clip-path="url(#clipPath2)" stroke="none">Eventos</text>
      <ellipse rx="50.6637" fill="none" ry="18.5252" clip-path="url(#clipPath2)" cx="1057.8238" cy="753.5331"/>
    </g>
    <g fill="white" text-rendering="geometricPrecision" shape-rendering="geometricPrecision" transform="matrix(0.5271,0,0,0.5271,-96.4615,-162.3506)" stroke="white">
      <ellipse rx="50.6637" ry="18.5252" clip-path="url(#clipPath2)" cx="1047.1988" cy="944.4706" stroke="none"/>
    </g>
    <g font-size="11px" stroke-linecap="butt" transform="matrix(0.5271,0,0,0.5271,-96.4615,-162.3506)" text-rendering="geometricPrecision" font-family="sans-serif" shape-rendering="geometricPrecision" stroke-miterlimit="1.45">
      <text x="1012.3189" xml:space="preserve" y="941.8763" clip-path="url(#clipPath2)" stroke="none">CU-11 Editar</text>
      <text x="1030.2476" xml:space="preserve" y="954.681" clip-path="url(#clipPath2)" stroke="none">Orden</text>
      <ellipse rx="50.6637" fill="none" ry="18.5252" clip-path="url(#clipPath2)" cx="1047.1988" cy="944.4706"/>
    </g>
    <g fill="white" text-rendering="geometricPrecision" shape-rendering="geometricPrecision" transform="matrix(0.5271,0,0,0.5271,-96.4615,-162.3506)" stroke="white">
      <ellipse rx="50.6637" ry="18.5252" clip-path="url(#clipPath2)" cx="683.7463" cy="1162.0415" stroke="none"/>
    </g>
    <g font-size="11px" stroke-linecap="butt" transform="matrix(0.5271,0,0,0.5271,-96.4615,-162.3506)" text-rendering="geometricPrecision" font-family="sans-serif" shape-rendering="geometricPrecision" stroke-miterlimit="1.45">
      <text x="648.8664" xml:space="preserve" y="1159.4473" clip-path="url(#clipPath2)" stroke="none">CU-09 Editar</text>
      <text x="636.4807" xml:space="preserve" y="1172.252" clip-path="url(#clipPath2)" stroke="none">Datos de Usuario</text>
      <ellipse rx="50.6637" fill="none" ry="18.5252" clip-path="url(#clipPath2)" cx="683.7463" cy="1162.0415"/>
    </g>
    <g fill="white" text-rendering="geometricPrecision" shape-rendering="geometricPrecision" transform="matrix(0.5271,0,0,0.5271,-96.4615,-162.3506)" stroke="white">
      <ellipse rx="50.6637" ry="18.5252" clip-path="url(#clipPath2)" cx="857.3463" cy="1162.0415" stroke="none"/>
    </g>
    <g font-size="11px" stroke-linecap="butt" transform="matrix(0.5271,0,0,0.5271,-96.4615,-162.3506)" text-rendering="geometricPrecision" font-family="sans-serif" shape-rendering="geometricPrecision" stroke-miterlimit="1.45">
      <text x="812.3902" xml:space="preserve" y="1159.4473" clip-path="url(#clipPath2)" stroke="none">CU-10 Consultar</text>
      <text x="810.0806" xml:space="preserve" y="1172.252" clip-path="url(#clipPath2)" stroke="none">Datos de Usuario</text>
      <ellipse rx="50.6637" fill="none" ry="18.5252" clip-path="url(#clipPath2)" cx="857.3463" cy="1162.0415"/>
    </g>
    <g fill="white" text-rendering="geometricPrecision" shape-rendering="geometricPrecision" transform="matrix(0.5271,0,0,0.5271,-96.4615,-162.3506)" stroke="white">
      <ellipse rx="50.6637" ry="18.5252" clip-path="url(#clipPath2)" cx="1057.8238" cy="647.0949" stroke="none"/>
    </g>
    <g font-size="11px" stroke-linecap="butt" transform="matrix(0.5271,0,0,0.5271,-96.4615,-162.3506)" text-rendering="geometricPrecision" font-family="sans-serif" shape-rendering="geometricPrecision" stroke-miterlimit="1.45">
      <text x="1018.2012" xml:space="preserve" y="644.5007" clip-path="url(#clipPath2)" stroke="none">CU-10 Mostrar</text>
      <text x="1013.3592" xml:space="preserve" y="657.3054" clip-path="url(#clipPath2)" stroke="none">Evento en Mapa</text>
      <ellipse rx="50.6637" fill="none" ry="18.5252" clip-path="url(#clipPath2)" cx="1057.8238" cy="647.0949"/>
    </g>
    <g fill="white" text-rendering="geometricPrecision" shape-rendering="geometricPrecision" transform="matrix(0.5271,0,0,0.5271,-96.4615,-162.3506)" stroke="white">
      <ellipse rx="50.6637" ry="18.5252" clip-path="url(#clipPath2)" cx="857.3463" cy="1041.9095" stroke="none"/>
    </g>
    <g font-size="11px" stroke-linecap="butt" transform="matrix(0.5271,0,0,0.5271,-96.4615,-162.3506)" text-rendering="geometricPrecision" font-family="sans-serif" shape-rendering="geometricPrecision" stroke-miterlimit="1.45">
      <text x="816.2144" xml:space="preserve" y="1039.3153" clip-path="url(#clipPath2)" stroke="none">CU-11 Eliminar</text>
      <text x="817.2027" xml:space="preserve" y="1052.12" clip-path="url(#clipPath2)" stroke="none">Lugar / Evento</text>
      <ellipse rx="50.6637" fill="none" ry="18.5252" clip-path="url(#clipPath2)" cx="857.3463" cy="1041.9095"/>
    </g>
    <g fill="white" text-rendering="geometricPrecision" shape-rendering="geometricPrecision" transform="matrix(0.5271,0,0,0.5271,-96.4615,-162.3506)" stroke="white">
      <ellipse rx="50.6637" ry="18.5252" clip-path="url(#clipPath2)" cx="988.6738" cy="1004.859" stroke="none"/>
    </g>
    <g font-size="11px" stroke-linecap="butt" transform="matrix(0.5271,0,0,0.5271,-96.4615,-162.3506)" text-rendering="geometricPrecision" font-family="sans-serif" shape-rendering="geometricPrecision" stroke-miterlimit="1.45">
      <text x="952.0456" xml:space="preserve" y="1002.2648" clip-path="url(#clipPath2)" stroke="none">CU-11 Editar </text>
      <text x="949.7629" xml:space="preserve" y="1015.0695" clip-path="url(#clipPath2)" stroke="none">Modo de Viaje</text>
      <ellipse rx="50.6637" fill="none" ry="18.5252" clip-path="url(#clipPath2)" cx="988.6738" cy="1004.859"/>
    </g>
    <g text-rendering="geometricPrecision" shape-rendering="geometricPrecision" transform="matrix(0.3618,0,0,0.2817,157.9416,117.3952)">
      <g clip-path="url(#clipPath4)">
        <svg xmlns:svg="http://www.w3.org/2000/svg" xmlns:sodipodi="http://sodipodi.sourceforge.net/DTD/sodipodi-0.dtd" xmlns:inkscape="http://www.inkscape.org/namespaces/inkscape" xmlns:dc="http://purl.org/dc/elements/1.1/" xmlns:cc="http://web.resource.org/cc/" xmlns:rdf="http://www.w3.org/1999/02/22-rdf-syntax-ns#" opacity="1" writing-mode="lr-tb" stop-color="rgb(0, 0, 0)" shape-rendering="auto" glyph-orientation-horizontal="0deg" color-profile="auto" lighting-color="rgb(255, 255, 255)" color="rgb(0, 0, 0)" font-weight="400" alignment-baseline="auto" font-style="normal" version="1.0" color-interpolation-filters="linearrgb" text-anchor="start" stroke-linecap="butt" color-interpolation="srgb" font-variant="normal" word-spacing="normal" fill-opacity="1" text-rendering="auto" clip-path="none" text-decoration="none" letter-spacing="normal" glyph-orientation-vertical="auto" display="inline" font-size-adjust="none" overflow="visible" fill="rgb(0, 0, 0)" font-stretch="normal" stroke-dasharray="none" inkscape:version="0.45.1" id="svg2.svg2" stroke-miterlimit="4" stop-opacity="1" color-rendering="auto" font-size="12" sodipodi:docbase="C:\Daten\alberts\projects\yfx" pointer-events="visiblepainted" mask="none" direction="ltr" baseline-shift="baseline" sodipodi:docname="uml_actor.svg" enable-background="accumulate" fill-rule="nonzero" image-rendering="auto" stroke-dashoffset="0" inkscape:output_extension="org.inkscape.output.svg.inkscape" marker-end="none" width="41" clip="auto" cursor="auto" stroke="none" filter="none" visibility="visible" kerning="auto" stroke-width="1" font-family="&quot;Arial&quot;,&quot;Helvetica&quot;,sans-serif" flood-opacity="1" clip-rule="nonzero" src="none" height="68.997391" unicode-bidi="normal" sodipodi:version="0.32" stroke-linejoin="miter" stroke-opacity="1" flood-color="rgb(0, 0, 0)" dominant-baseline="auto" marker-start="none" marker-mid="none">
  <defs id="svg2.defs4"/>
  
  <metadata id="svg2.metadata7">
    
  </metadata>
  <g inkscape:groupmode="layer" id="svg2.layer1" transform="translate(-29.5,-42.959476)" inkscape:label="Ebene 1">
    <a id="svg2.a3142" transform="matrix(1.0873906,0,0,1,-4.4741999,0)">
      <path transform="translate(11.586889,5.2908993)" style="fill:none;fill-rule:evenodd;stroke:#000000;stroke-width:1px;stroke-linecap:butt;stroke-linejoin:miter;stroke-opacity:1" sodipodi:cx="38.509369" sodipodi:cy="47.36993" sodipodi:rx="8.5197716" id="svg2.path2160" d="M 47.02914 47.36993 A 8.5197716 9.2013531 0 1 1  29.989597,47.36993 A 8.5197716 9.2013531 0 1 1  47.02914 47.36993 z" sodipodi:ry="9.2013531" sodipodi:type="arc"/>
    </a>
    <path style="fill:none" sodipodi:cx="43.962021" sodipodi:cy="48.392303" d="M 47.71072 48.392303 A 3.7486994 0 0 1 1  40.213321,48.392303 A 3.7486994 0 0 1 1  47.71072 48.392303 z" id="svg2.path3134" sodipodi:rx="3.7486994" sodipodi:ry="0" sodipodi:type="arc"/>
    <path style="fill:none;fill-rule:evenodd;stroke:#000000;stroke-width:1.24319649px;stroke-linecap:butt;stroke-linejoin:miter;stroke-opacity:1" d="M 50,61.33709 C 50,91.363211 50,92.247838 50,92.247838" id="svg2.path3136"/>
    <path style="fill:none;fill-rule:evenodd;stroke:#000000;stroke-width:1px;stroke-linecap:butt;stroke-linejoin:miter;stroke-opacity:1" d="M 69.760668,72.362183 C 69.760668,72.362183 69.760668,72.362183 50.239332,72.362183 C 30.239332,72.362183 30.239332,72.362183 30.239332,72.362183 L 30.239332,72.362183" id="svg2.path3138"/>
    <path style="fill:none;fill-rule:evenodd;stroke:#000000;stroke-width:1px;stroke-linecap:butt;stroke-linejoin:miter;stroke-opacity:1" d="M 30,111.45687 C 30,111.45687 30,111.45687 50,92.013532 C 70,111.45687 70,111.45687 70,111.45687" id="svg2.path3140"/>
  </g>
</svg>
      </g>
    </g>
    <g font-size="11px" stroke-linecap="butt" transform="matrix(0.5271,0,0,0.5271,-96.4615,-162.3506)" text-rendering="geometricPrecision" font-family="sans-serif" shape-rendering="geometricPrecision" stroke-miterlimit="1.45">
      <text x="475.8068" xml:space="preserve" y="583.7183" clip-path="url(#clipPath2)" stroke="none">Usuario</text>
      <text x="454.2714" xml:space="preserve" y="596.523" clip-path="url(#clipPath2)" stroke="none">No Autenticado</text>
    </g>
    <g text-rendering="geometricPrecision" shape-rendering="geometricPrecision" transform="matrix(0.3618,0,0,0.2817,160.929,293.5765)">
      <g clip-path="url(#clipPath5)">
        <svg xmlns:svg="http://www.w3.org/2000/svg" xmlns:sodipodi="http://sodipodi.sourceforge.net/DTD/sodipodi-0.dtd" xmlns:inkscape="http://www.inkscape.org/namespaces/inkscape" xmlns:dc="http://purl.org/dc/elements/1.1/" xmlns:cc="http://web.resource.org/cc/" xmlns:rdf="http://www.w3.org/1999/02/22-rdf-syntax-ns#" opacity="1" writing-mode="lr-tb" stop-color="rgb(0, 0, 0)" shape-rendering="auto" glyph-orientation-horizontal="0deg" color-profile="auto" lighting-color="rgb(255, 255, 255)" color="rgb(0, 0, 0)" font-weight="400" alignment-baseline="auto" font-style="normal" version="1.0" color-interpolation-filters="linearrgb" text-anchor="start" stroke-linecap="butt" color-interpolation="srgb" font-variant="normal" word-spacing="normal" fill-opacity="1" text-rendering="auto" clip-path="none" text-decoration="none" letter-spacing="normal" glyph-orientation-vertical="auto" display="inline" font-size-adjust="none" overflow="visible" fill="rgb(0, 0, 0)" font-stretch="normal" stroke-dasharray="none" inkscape:version="0.45.1" id="svg3.svg2" stroke-miterlimit="4" stop-opacity="1" color-rendering="auto" font-size="12" sodipodi:docbase="C:\Daten\alberts\projects\yfx" pointer-events="visiblepainted" mask="none" direction="ltr" baseline-shift="baseline" sodipodi:docname="uml_actor.svg" enable-background="accumulate" fill-rule="nonzero" image-rendering="auto" stroke-dashoffset="0" inkscape:output_extension="org.inkscape.output.svg.inkscape" marker-end="none" width="41" clip="auto" cursor="auto" stroke="none" filter="none" visibility="visible" kerning="auto" stroke-width="1" font-family="&quot;Arial&quot;,&quot;Helvetica&quot;,sans-serif" flood-opacity="1" clip-rule="nonzero" src="none" height="68.997391" unicode-bidi="normal" sodipodi:version="0.32" stroke-linejoin="miter" stroke-opacity="1" flood-color="rgb(0, 0, 0)" dominant-baseline="auto" marker-start="none" marker-mid="none">
  <defs id="svg3.defs4"/>
  
  <metadata id="svg3.metadata7">
    
  </metadata>
  <g inkscape:groupmode="layer" id="svg3.layer1" transform="translate(-29.5,-42.959476)" inkscape:label="Ebene 1">
    <a id="svg3.a3142" transform="matrix(1.0873906,0,0,1,-4.4741999,0)">
      <path transform="translate(11.586889,5.2908993)" style="fill:none;fill-rule:evenodd;stroke:#000000;stroke-width:1px;stroke-linecap:butt;stroke-linejoin:miter;stroke-opacity:1" sodipodi:cx="38.509369" sodipodi:cy="47.36993" sodipodi:rx="8.5197716" id="svg3.path2160" d="M 47.02914 47.36993 A 8.5197716 9.2013531 0 1 1  29.989597,47.36993 A 8.5197716 9.2013531 0 1 1  47.02914 47.36993 z" sodipodi:ry="9.2013531" sodipodi:type="arc"/>
    </a>
    <path style="fill:none" sodipodi:cx="43.962021" sodipodi:cy="48.392303" d="M 47.71072 48.392303 A 3.7486994 0 0 1 1  40.213321,48.392303 A 3.7486994 0 0 1 1  47.71072 48.392303 z" id="svg3.path3134" sodipodi:rx="3.7486994" sodipodi:ry="0" sodipodi:type="arc"/>
    <path style="fill:none;fill-rule:evenodd;stroke:#000000;stroke-width:1.24319649px;stroke-linecap:butt;stroke-linejoin:miter;stroke-opacity:1" d="M 50,61.33709 C 50,91.363211 50,92.247838 50,92.247838" id="svg3.path3136"/>
    <path style="fill:none;fill-rule:evenodd;stroke:#000000;stroke-width:1px;stroke-linecap:butt;stroke-linejoin:miter;stroke-opacity:1" d="M 69.760668,72.362183 C 69.760668,72.362183 69.760668,72.362183 50.239332,72.362183 C 30.239332,72.362183 30.239332,72.362183 30.239332,72.362183 L 30.239332,72.362183" id="svg3.path3138"/>
    <path style="fill:none;fill-rule:evenodd;stroke:#000000;stroke-width:1px;stroke-linecap:butt;stroke-linejoin:miter;stroke-opacity:1" d="M 30,111.45687 C 30,111.45687 30,111.45687 50,92.013532 C 70,111.45687 70,111.45687 70,111.45687" id="svg3.path3140"/>
  </g>
</svg>
      </g>
    </g>
    <g font-size="11px" stroke-linecap="butt" transform="matrix(0.5271,0,0,0.5271,-96.4615,-162.3506)" text-rendering="geometricPrecision" font-family="sans-serif" shape-rendering="geometricPrecision" stroke-miterlimit="1.45">
      <text x="481.4741" xml:space="preserve" y="917.957" clip-path="url(#clipPath2)" stroke="none">Usuario</text>
      <text x="459.9387" xml:space="preserve" y="930.7617" clip-path="url(#clipPath2)" stroke="none">No Autenticado</text>
      <path fill="none" d="M510.6836 419.1465 L627.7675 419.1465" clip-path="url(#clipPath2)"/>
      <path fill="none" stroke-dasharray="6,2" d="M806.6825 753.5331 L723.1575 753.5331" clip-path="url(#clipPath2)"/>
      <path stroke-dasharray="6,2" d="M719.1575 753.5331 L731.1575 759.5331 L719.1575 753.5331 L731.1575 747.5331 Z" clip-path="url(#clipPath2)" stroke="none"/>
    </g>
    <g text-rendering="geometricPrecision" shape-rendering="geometricPrecision" transform="matrix(0.5271,0,0,0.5271,-96.4615,-162.3506)">
      <path fill="none" d="M719.1575 753.5331 L731.1575 759.5331 L719.1575 753.5331 L731.1575 747.5331 Z" clip-path="url(#clipPath2)"/>
      <path fill="none" stroke-miterlimit="1.45" stroke-dasharray="6,2" d="M951.8259 500.2874 L865.9418 730.4933" clip-path="url(#clipPath2)" stroke-linecap="butt"/>
      <path stroke-miterlimit="1.45" stroke-dasharray="6,2" d="M864.5437 734.241 L874.3597 725.0952 L864.5437 734.241 L863.1166 720.9007 Z" clip-path="url(#clipPath2)" stroke-linecap="butt" stroke="none"/>
      <path fill="none" d="M864.5437 734.241 L874.3597 725.0952 L864.5437 734.241 L863.1166 720.9007 Z" clip-path="url(#clipPath2)"/>
      <path fill="none" stroke-miterlimit="1.45" stroke-dasharray="6,2" d="M1030.9167 566.5251 L877.0297 732.3259" clip-path="url(#clipPath2)" stroke-linecap="butt"/>
      <path stroke-miterlimit="1.45" stroke-dasharray="6,2" d="M874.3085 735.2576 L886.8696 730.544 L874.3085 735.2576 L878.0743 722.3806 Z" clip-path="url(#clipPath2)" stroke-linecap="butt" stroke="none"/>
      <path fill="none" d="M874.3085 735.2576 L886.8696 730.544 L874.3085 735.2576 L878.0743 722.3806 Z" clip-path="url(#clipPath2)"/>
      <path fill="none" stroke-miterlimit="1.45" stroke-dasharray="6,2" d="M857.3463 856.946 L857.3463 777.0583" clip-path="url(#clipPath2)" stroke-linecap="butt"/>
      <path stroke-miterlimit="1.45" stroke-dasharray="6,2" d="M857.3463 773.0583 L851.3463 785.0583 L857.3463 773.0583 L863.3463 785.0583 Z" clip-path="url(#clipPath2)" stroke-linecap="butt" stroke="none"/>
      <path fill="none" d="M857.3463 773.0583 L851.3463 785.0583 L857.3463 773.0583 L863.3463 785.0583 Z" clip-path="url(#clipPath2)"/>
      <path fill="none" stroke-miterlimit="1.45" stroke-dasharray="6,2" d="M857.3463 567.5079 L857.3463 730.0079" clip-path="url(#clipPath2)" stroke-linecap="butt"/>
      <path stroke-miterlimit="1.45" stroke-dasharray="6,2" d="M857.3463 734.0079 L863.3463 722.0079 L857.3463 734.0079 L851.3463 722.0079 Z" clip-path="url(#clipPath2)" stroke-linecap="butt" stroke="none"/>
      <path fill="none" d="M857.3463 734.0079 L863.3463 722.0079 L857.3463 734.0079 L851.3463 722.0079 Z" clip-path="url(#clipPath2)"/>
      <path fill="none" stroke-miterlimit="1.45" stroke-dasharray="6,2" d="M745.035 875.4713 L801.6825 875.4713" clip-path="url(#clipPath2)" stroke-linecap="butt"/>
      <path stroke-miterlimit="1.45" stroke-dasharray="6,2" d="M805.6825 875.4713 L793.6825 869.4713 L805.6825 875.4713 L793.6825 881.4713 Z" clip-path="url(#clipPath2)" stroke-linecap="butt" stroke="none"/>
      <path fill="none" d="M805.6825 875.4713 L793.6825 869.4713 L805.6825 875.4713 L793.6825 881.4713 Z" clip-path="url(#clipPath2)"/>
      <path fill="none" stroke-miterlimit="1.45" stroke-dasharray="6,2" d="M683.7463 901.7465 L683.7463 948.3456" clip-path="url(#clipPath2)" stroke-linecap="butt"/>
      <path stroke-miterlimit="1.45" stroke-dasharray="6,2" d="M683.7463 952.3456 L689.7463 940.3456 L683.7463 952.3456 L677.7463 940.3456 Z" clip-path="url(#clipPath2)" stroke-linecap="butt" stroke="none"/>
      <path fill="none" d="M683.7463 952.3456 L689.7463 940.3456 L683.7463 952.3456 L677.7463 940.3456 Z" clip-path="url(#clipPath2)"/>
      <path fill="none" stroke-miterlimit="1.45" stroke-dasharray="6,2" d="M683.7463 1048.4309 L683.7463 995.3961" clip-path="url(#clipPath2)" stroke-linecap="butt"/>
      <path stroke-miterlimit="1.45" stroke-dasharray="6,2" d="M683.7463 991.3961 L677.7463 1003.3961 L683.7463 991.3961 L689.7463 1003.3961 Z" clip-path="url(#clipPath2)" stroke-linecap="butt" stroke="none"/>
      <path fill="none" d="M683.7463 991.3961 L677.7463 1003.3961 L683.7463 991.3961 L689.7463 1003.3961 Z" clip-path="url(#clipPath2)"/>
      <path fill="none" stroke-miterlimit="1.45" stroke-dasharray="6,2" d="M1057.8237 841.446 L1057.8237 777.0583" clip-path="url(#clipPath2)" stroke-linecap="butt"/>
      <path stroke-miterlimit="1.45" stroke-dasharray="6,2" d="M1057.8237 773.0583 L1051.8237 785.0583 L1057.8237 773.0583 L1063.8237 785.0583 Z" clip-path="url(#clipPath2)" stroke-linecap="butt" stroke="none"/>
      <path fill="none" d="M1057.8237 773.0583 L1051.8237 785.0583 L1057.8237 773.0583 L1063.8237 785.0583 Z" clip-path="url(#clipPath2)"/>
      <path fill="none" stroke-miterlimit="1.45" stroke-dasharray="6,2" d="M1007.16 753.5331 L913.01 753.5331" clip-path="url(#clipPath2)" stroke-linecap="butt"/>
      <path stroke-miterlimit="1.45" stroke-dasharray="6,2" d="M909.01 753.5331 L921.01 759.5331 L909.01 753.5331 L921.01 747.5331 Z" clip-path="url(#clipPath2)" stroke-linecap="butt" stroke="none"/>
      <path fill="none" d="M909.01 753.5331 L921.01 759.5331 L909.01 753.5331 L921.01 747.5331 Z" clip-path="url(#clipPath2)"/>
      <path fill="none" stroke-miterlimit="1.45" stroke-dasharray="6,2" d="M1011.2654 931.4111 L897.9789 890.2386" clip-path="url(#clipPath2)" stroke-linecap="butt"/>
      <path stroke-miterlimit="1.45" stroke-dasharray="6,2" d="M894.2195 888.8723 L903.4482 898.6104 L894.2195 888.8723 L907.5472 887.3322 Z" clip-path="url(#clipPath2)" stroke-linecap="butt" stroke="none"/>
      <path fill="none" d="M894.2195 888.8723 L903.4482 898.6104 L894.2195 888.8723 L907.5472 887.3322 Z" clip-path="url(#clipPath2)"/>
      <path fill="none" stroke-miterlimit="1.45" stroke-dasharray="6,2" d="M734.41 1162.0415 L801.6825 1162.0415" clip-path="url(#clipPath2)" stroke-linecap="butt"/>
      <path stroke-miterlimit="1.45" stroke-dasharray="6,2" d="M805.6825 1162.0415 L793.6825 1156.0415 L805.6825 1162.0415 L793.6825 1168.0415 Z" clip-path="url(#clipPath2)" stroke-linecap="butt" stroke="none"/>
      <path fill="none" d="M805.6825 1162.0415 L793.6825 1156.0415 L805.6825 1162.0415 L793.6825 1168.0415 Z" clip-path="url(#clipPath2)"/>
      <path fill="none" stroke-miterlimit="1.45" stroke-dasharray="6,2" d="M1057.8237 665.6201 L1057.8237 730.0079" clip-path="url(#clipPath2)" stroke-linecap="butt"/>
      <path stroke-miterlimit="1.45" stroke-dasharray="6,2" d="M1057.8237 734.0079 L1063.8237 722.0079 L1057.8237 734.0079 L1051.8237 722.0079 Z" clip-path="url(#clipPath2)" stroke-linecap="butt" stroke="none"/>
      <path fill="none" d="M1057.8237 734.0079 L1063.8237 722.0079 L1057.8237 734.0079 L1051.8237 722.0079 Z" clip-path="url(#clipPath2)"/>
      <path fill="none" stroke-miterlimit="1.45" stroke-dasharray="6,2" d="M857.3463 1023.3843 L857.3463 898.9965" clip-path="url(#clipPath2)" stroke-linecap="butt"/>
      <path stroke-miterlimit="1.45" stroke-dasharray="6,2" d="M857.3463 894.9965 L851.3463 906.9965 L857.3463 894.9965 L863.3463 906.9965 Z" clip-path="url(#clipPath2)" stroke-linecap="butt" stroke="none"/>
      <path fill="none" d="M857.3463 894.9965 L851.3463 906.9965 L857.3463 894.9965 L863.3463 906.9965 Z" clip-path="url(#clipPath2)"/>
      <path fill="none" stroke-miterlimit="1.45" stroke-dasharray="6,2" d="M971.0457 987.4913 L878.5361 896.3481" clip-path="url(#clipPath2)" stroke-linecap="butt"/>
      <path stroke-miterlimit="1.45" stroke-dasharray="6,2" d="M875.6867 893.5408 L880.0238 906.2369 L875.6867 893.5408 L888.4458 897.6888 Z" clip-path="url(#clipPath2)" stroke-linecap="butt" stroke="none"/>
      <path fill="none" d="M875.6867 893.5408 L880.0238 906.2369 L875.6867 893.5408 L888.4458 897.6888 Z" clip-path="url(#clipPath2)"/>
      <path fill="none" stroke-miterlimit="1.45" d="M510.6836 548.9826 L627.7675 548.9826" clip-path="url(#clipPath2)" stroke-linecap="butt"/>
      <path fill="none" stroke-miterlimit="1.45" d="M516.3234 872.947 L654.1998 771.3828" clip-path="url(#clipPath2)" stroke-linecap="butt"/>
      <path fill="none" stroke-miterlimit="1.45" d="M516.3234 865.2324 L662.4431 676.7766" clip-path="url(#clipPath2)" stroke-linecap="butt"/>
      <path fill="none" stroke-miterlimit="1.45" d="M514.442 901.7708 L672.0228 1144.019" clip-path="url(#clipPath2)" stroke-linecap="butt"/>
    </g>
  </g>
</svg>
