<?xml version="1.0" encoding="UTF-8"?><svg xmlns="http://www.w3.org/2000/svg" xmlns:xlink="http://www.w3.org/1999/xlink" fill-opacity="1" color-rendering="auto" color-interpolation="auto" text-rendering="auto" stroke="black" stroke-linecap="square" width="446" stroke-miterlimit="10" shape-rendering="auto" stroke-opacity="1" fill="black" stroke-dasharray="none" font-weight="normal" stroke-width="1" height="665" font-family="'Dialog'" font-style="normal" stroke-linejoin="miter" font-size="12px" stroke-dashoffset="0" image-rendering="auto">
  <!--Generated by ySVG 2.5-->
  <defs id="genericDefs"/>
  <g>
    <g fill="white" text-rendering="geometricPrecision" shape-rendering="geometricPrecision" transform="translate(-526,-510)" stroke="white">
      <rect x="526" width="446" height="665" y="510" clip-path="url(#clipPath2)" stroke="none"/>
    </g>
    <g fill="white" text-rendering="geometricPrecision" shape-rendering="geometricPrecision" transform="matrix(1,0,0,1,-526,-510)" stroke="white">
      <ellipse rx="37.9294" ry="17.0126" clip-path="url(#clipPath2)" cx="678.4313" cy="587.7853" stroke="none"/>
    </g>
    <g font-size="9px" stroke-linecap="butt" transform="matrix(1,0,0,1,-526,-510)" text-rendering="geometricPrecision" font-family="sans-serif" shape-rendering="geometricPrecision" stroke-miterlimit="1.45">
      <text x="643.9166" xml:space="preserve" y="585.8077" clip-path="url(#clipPath2)" stroke="none">CU-02 Autenticar</text>
      <text x="662.9252" xml:space="preserve" y="596.8336" clip-path="url(#clipPath2)" stroke="none">Usuario</text>
      <ellipse rx="37.9294" fill="none" ry="17.0126" clip-path="url(#clipPath2)" cx="678.4313" cy="587.7853"/>
    </g>
    <g text-rendering="geometricPrecision" shape-rendering="geometricPrecision" transform="matrix(0.6865,0,0,0.5344,32.7488,58.004)">
      <g clip-path="url(#clipPath3)">
        <svg xmlns:svg="http://www.w3.org/2000/svg" xmlns:sodipodi="http://sodipodi.sourceforge.net/DTD/sodipodi-0.dtd" xmlns:inkscape="http://www.inkscape.org/namespaces/inkscape" xmlns:dc="http://purl.org/dc/elements/1.1/" xmlns:cc="http://web.resource.org/cc/" xmlns:rdf="http://www.w3.org/1999/02/22-rdf-syntax-ns#" opacity="1" writing-mode="lr-tb" stop-color="rgb(0, 0, 0)" shape-rendering="auto" glyph-orientation-horizontal="0deg" color-profile="auto" lighting-color="rgb(255, 255, 255)" color="rgb(0, 0, 0)" font-weight="400" alignment-baseline="auto" font-style="normal" version="1.0" color-interpolation-filters="linearrgb" text-anchor="start" stroke-linecap="butt" color-interpolation="srgb" font-variant="normal" word-spacing="normal" fill-opacity="1" text-rendering="auto" clip-path="none" text-decoration="none" letter-spacing="normal" glyph-orientation-vertical="auto" display="inline" font-size-adjust="none" overflow="visible" fill="rgb(0, 0, 0)" font-stretch="normal" stroke-dasharray="none" inkscape:version="0.45.1" id="svg1.svg2" stroke-miterlimit="4" stop-opacity="1" color-rendering="auto" font-size="12" sodipodi:docbase="C:\Daten\alberts\projects\yfx" pointer-events="visiblepainted" mask="none" direction="ltr" baseline-shift="baseline" sodipodi:docname="uml_actor.svg" enable-background="accumulate" fill-rule="nonzero" image-rendering="auto" stroke-dashoffset="0" inkscape:output_extension="org.inkscape.output.svg.inkscape" marker-end="none" width="41" clip="auto" cursor="auto" stroke="none" filter="none" visibility="visible" kerning="auto" stroke-width="1" font-family="&quot;Arial&quot;,&quot;Helvetica&quot;,sans-serif" flood-opacity="1" clip-rule="nonzero" src="none" height="68.997391" unicode-bidi="normal" sodipodi:version="0.32" stroke-linejoin="miter" stroke-opacity="1" flood-color="rgb(0, 0, 0)" dominant-baseline="auto" marker-start="none" marker-mid="none">
  <defs id="svg1.defs4">
            <clipPath clipPathUnits="userSpaceOnUse" id="clipPath1">
              <path d="M0 0 L446 0 L446 665 L0 665 L0 0 Z"/>
            </clipPath>
            <clipPath clipPathUnits="userSpaceOnUse" id="clipPath2">
              <path d="M526 510 L972 510 L972 1175 L526 1175 L526 510 Z"/>
            </clipPath>
            <clipPath clipPathUnits="userSpaceOnUse" id="clipPath3">
              <path d="M-47.706 -108.548 L601.9937 -108.548 L601.9937 1135.926 L-47.706 1135.926 L-47.706 -108.548 Z"/>
            </clipPath>
            <clipPath clipPathUnits="userSpaceOnUse" id="clipPath4">
              <path d="M-47.706 -252.5599 L601.9937 -252.5599 L601.9937 991.9142 L-47.706 991.9142 L-47.706 -252.5599 Z"/>
            </clipPath>
            <clipPath clipPathUnits="userSpaceOnUse" id="clipPath5">
              <path d="M-55.9617 -664.2546 L593.738 -664.2546 L593.738 580.2195 L-55.9617 580.2195 L-55.9617 -664.2546 Z"/>
            </clipPath>
          </defs>
  
  <metadata id="svg1.metadata7">
    
  </metadata>
  <g inkscape:groupmode="layer" id="svg1.layer1" transform="translate(-29.5,-42.959476)" inkscape:label="Ebene 1">
    <a id="svg1.a3142" transform="matrix(1.0873906,0,0,1,-4.4741999,0)">
      <path transform="translate(11.586889,5.2908993)" style="fill:none;fill-rule:evenodd;stroke:#000000;stroke-width:1px;stroke-linecap:butt;stroke-linejoin:miter;stroke-opacity:1" sodipodi:cx="38.509369" sodipodi:cy="47.36993" sodipodi:rx="8.5197716" id="svg1.path2160" d="M 47.02914 47.36993 A 8.5197716 9.2013531 0 1 1  29.989597,47.36993 A 8.5197716 9.2013531 0 1 1  47.02914 47.36993 z" sodipodi:ry="9.2013531" sodipodi:type="arc"/>
    </a>
    <path style="fill:none" sodipodi:cx="43.962021" sodipodi:cy="48.392303" d="M 47.71072 48.392303 A 3.7486994 0 0 1 1  40.213321,48.392303 A 3.7486994 0 0 1 1  47.71072 48.392303 z" id="svg1.path3134" sodipodi:rx="3.7486994" sodipodi:ry="0" sodipodi:type="arc"/>
    <path style="fill:none;fill-rule:evenodd;stroke:#000000;stroke-width:1.24319649px;stroke-linecap:butt;stroke-linejoin:miter;stroke-opacity:1" d="M 50,61.33709 C 50,91.363211 50,92.247838 50,92.247838" id="svg1.path3136"/>
    <path style="fill:none;fill-rule:evenodd;stroke:#000000;stroke-width:1px;stroke-linecap:butt;stroke-linejoin:miter;stroke-opacity:1" d="M 69.760668,72.362183 C 69.760668,72.362183 69.760668,72.362183 50.239332,72.362183 C 30.239332,72.362183 30.239332,72.362183 30.239332,72.362183 L 30.239332,72.362183" id="svg1.path3138"/>
    <path style="fill:none;fill-rule:evenodd;stroke:#000000;stroke-width:1px;stroke-linecap:butt;stroke-linejoin:miter;stroke-opacity:1" d="M 30,111.45687 C 30,111.45687 30,111.45687 50,92.013532 C 70,111.45687 70,111.45687 70,111.45687" id="svg1.path3140"/>
  </g>
</svg>
      </g>
    </g>
    <g font-size="11px" stroke-linecap="butt" transform="matrix(1,0,0,1,-526,-510)" text-rendering="geometricPrecision" font-family="sans-serif" shape-rendering="geometricPrecision" stroke-miterlimit="1.45">
      <text x="553.8696" xml:space="preserve" y="621.857" clip-path="url(#clipPath2)" stroke="none">Usuario</text>
      <text x="535.2131" xml:space="preserve" y="635.3331" clip-path="url(#clipPath2)" stroke="none">No Autenticado</text>
    </g>
    <g fill="white" text-rendering="geometricPrecision" shape-rendering="geometricPrecision" transform="matrix(1,0,0,1,-526,-510)" stroke="white">
      <ellipse rx="32.2262" ry="18.5252" clip-path="url(#clipPath2)" cx="678.4313" cy="728.765" stroke="none"/>
    </g>
    <g font-size="9px" stroke-linecap="butt" transform="matrix(1,0,0,1,-526,-510)" text-rendering="geometricPrecision" font-family="sans-serif" shape-rendering="geometricPrecision" stroke-miterlimit="1.45">
      <text x="652.9254" xml:space="preserve" y="726.7875" clip-path="url(#clipPath2)" stroke="none">CU-03 Crear</text>
      <text x="668.9259" xml:space="preserve" y="737.8134" clip-path="url(#clipPath2)" stroke="none">Ruta</text>
      <ellipse rx="32.2262" fill="none" ry="18.5252" clip-path="url(#clipPath2)" cx="678.4313" cy="728.765"/>
    </g>
    <g fill="white" text-rendering="geometricPrecision" shape-rendering="geometricPrecision" transform="matrix(1,0,0,1,-526,-510)" stroke="white">
      <ellipse rx="29.57" ry="17.0126" clip-path="url(#clipPath2)" cx="668.275" cy="802.6294" stroke="none"/>
    </g>
    <g font-size="9px" stroke-linecap="butt" transform="matrix(1,0,0,1,-526,-510)" text-rendering="geometricPrecision" font-family="sans-serif" shape-rendering="geometricPrecision" stroke-miterlimit="1.45">
      <text x="640.016" xml:space="preserve" y="800.6519" clip-path="url(#clipPath2)" stroke="none">CU-04 Buscar</text>
      <text x="656.5197" xml:space="preserve" y="811.6778" clip-path="url(#clipPath2)" stroke="none">Rutas</text>
      <ellipse rx="29.57" fill="none" ry="17.0126" clip-path="url(#clipPath2)" cx="668.275" cy="802.6294"/>
    </g>
    <g fill="white" text-rendering="geometricPrecision" shape-rendering="geometricPrecision" transform="matrix(1,0,0,1,-526,-510)" stroke="white">
      <ellipse rx="37.225" ry="17.0126" clip-path="url(#clipPath2)" cx="771.9438" cy="780.5844" stroke="none"/>
    </g>
    <g font-size="9px" stroke-linecap="butt" transform="matrix(1,0,0,1,-526,-510)" text-rendering="geometricPrecision" font-family="sans-serif" shape-rendering="geometricPrecision" stroke-miterlimit="1.45">
      <text x="738.431" xml:space="preserve" y="778.6068" clip-path="url(#clipPath2)" stroke="none">CU-05 Consultar</text>
      <text x="762.4384" xml:space="preserve" y="789.6327" clip-path="url(#clipPath2)" stroke="none">Ruta</text>
      <ellipse rx="37.225" fill="none" ry="17.0126" clip-path="url(#clipPath2)" cx="771.9438" cy="780.5844"/>
    </g>
    <g fill="white" text-rendering="geometricPrecision" shape-rendering="geometricPrecision" transform="matrix(1,0,0,1,-526,-510)" stroke="white">
      <ellipse rx="37.6637" ry="17.0126" clip-path="url(#clipPath2)" cx="678.4313" cy="663.2272" stroke="none"/>
    </g>
    <g font-size="9px" stroke-linecap="butt" transform="matrix(1,0,0,1,-526,-510)" text-rendering="geometricPrecision" font-family="sans-serif" shape-rendering="geometricPrecision" stroke-miterlimit="1.45">
      <text x="645.9227" xml:space="preserve" y="661.2496" clip-path="url(#clipPath2)" stroke="none">CU-01 Registrar</text>
      <text x="662.9252" xml:space="preserve" y="672.2755" clip-path="url(#clipPath2)" stroke="none">Usuario</text>
      <ellipse rx="37.6637" fill="none" ry="17.0126" clip-path="url(#clipPath2)" cx="678.4313" cy="663.2272"/>
    </g>
    <g fill="white" text-rendering="geometricPrecision" shape-rendering="geometricPrecision" transform="matrix(1,0,0,1,-526,-510)" stroke="white">
      <ellipse rx="38.5521" ry="17.0126" clip-path="url(#clipPath2)" cx="840.9329" cy="597.8502" stroke="none"/>
    </g>
    <g font-size="9px" stroke-linecap="butt" transform="matrix(1,0,0,1,-526,-510)" text-rendering="geometricPrecision" font-family="sans-serif" shape-rendering="geometricPrecision" stroke-miterlimit="1.45">
      <text x="808.4244" xml:space="preserve" y="595.8726" clip-path="url(#clipPath2)" stroke="none">CU-11 Modificar</text>
      <text x="814.9195" xml:space="preserve" y="606.8985" clip-path="url(#clipPath2)" stroke="none">Fechas Viaje</text>
      <ellipse rx="38.5521" fill="none" ry="17.0126" clip-path="url(#clipPath2)" cx="840.9329" cy="597.8502"/>
    </g>
    <g fill="white" text-rendering="geometricPrecision" shape-rendering="geometricPrecision" transform="matrix(1,0,0,1,-526,-510)" stroke="white">
      <ellipse rx="32.2262" ry="17.0126" clip-path="url(#clipPath2)" cx="911.7113" cy="631.8754" stroke="none"/>
    </g>
    <g font-size="9px" stroke-linecap="butt" transform="matrix(1,0,0,1,-526,-510)" text-rendering="geometricPrecision" font-family="sans-serif" shape-rendering="geometricPrecision" stroke-miterlimit="1.45">
      <text x="879.2027" xml:space="preserve" y="629.8979" clip-path="url(#clipPath2)" stroke="none">CU-11 Modificar</text>
      <text x="890.701" xml:space="preserve" y="640.9238" clip-path="url(#clipPath2)" stroke="none">Privacidad</text>
      <ellipse rx="32.2262" fill="none" ry="17.0126" clip-path="url(#clipPath2)" cx="911.7113" cy="631.8754"/>
    </g>
    <g fill="white" text-rendering="geometricPrecision" shape-rendering="geometricPrecision" transform="matrix(1,0,0,1,-526,-510)" stroke="white">
      <ellipse rx="37.225" ry="17.0126" clip-path="url(#clipPath2)" cx="791.2472" cy="884.7339" stroke="none"/>
    </g>
    <g font-size="9px" stroke-linecap="butt" transform="matrix(1,0,0,1,-526,-510)" text-rendering="geometricPrecision" font-family="sans-serif" shape-rendering="geometricPrecision" stroke-miterlimit="1.45">
      <text x="757.7346" xml:space="preserve" y="882.7564" clip-path="url(#clipPath2)" stroke="none">CU-11 Consultar</text>
      <text x="773.7394" xml:space="preserve" y="893.7823" clip-path="url(#clipPath2)" stroke="none">Itinerario</text>
      <ellipse rx="37.225" fill="none" ry="17.0126" clip-path="url(#clipPath2)" cx="791.2472" cy="884.7339"/>
    </g>
    <g fill="white" text-rendering="geometricPrecision" shape-rendering="geometricPrecision" transform="matrix(1,0,0,1,-526,-510)" stroke="white">
      <ellipse rx="37.225" ry="14.0252" clip-path="url(#clipPath2)" cx="771.9438" cy="669.2398" stroke="none"/>
    </g>
    <g font-size="9px" stroke-linecap="butt" transform="matrix(1,0,0,1,-526,-510)" text-rendering="geometricPrecision" font-family="sans-serif" shape-rendering="geometricPrecision" stroke-miterlimit="1.45">
      <text x="743.9374" xml:space="preserve" y="667.2623" clip-path="url(#clipPath2)" stroke="none">CU-11 Mostar</text>
      <text x="753.9327" xml:space="preserve" y="678.2881" clip-path="url(#clipPath2)" stroke="none">En Mapa</text>
      <ellipse rx="37.225" fill="none" ry="14.0252" clip-path="url(#clipPath2)" cx="771.9438" cy="669.2398"/>
    </g>
    <g fill="white" text-rendering="geometricPrecision" shape-rendering="geometricPrecision" transform="matrix(1,0,0,1,-526,-510)" stroke="white">
      <ellipse rx="47.85" ry="18.5252" clip-path="url(#clipPath2)" cx="670.3075" cy="883.2213" stroke="none"/>
    </g>
    <g font-size="9px" stroke-linecap="butt" transform="matrix(1,0,0,1,-526,-510)" text-rendering="geometricPrecision" font-family="sans-serif" shape-rendering="geometricPrecision" stroke-miterlimit="1.45">
      <text x="637.2958" xml:space="preserve" y="881.2438" clip-path="url(#clipPath2)" stroke="none">CU-08 Asignar y</text>
      <text x="630.0338" xml:space="preserve" y="892.2697" clip-path="url(#clipPath2)" stroke="none">Desasignar Lugares</text>
      <ellipse rx="47.85" fill="none" ry="18.5252" clip-path="url(#clipPath2)" cx="670.3075" cy="883.2213"/>
    </g>
    <g fill="white" text-rendering="geometricPrecision" shape-rendering="geometricPrecision" transform="matrix(1,0,0,1,-526,-510)" stroke="white">
      <ellipse rx="42.5375" ry="14.0252" clip-path="url(#clipPath2)" cx="670.3075" cy="965.1366" stroke="none"/>
    </g>
    <g font-size="9px" stroke-linecap="butt" transform="matrix(1,0,0,1,-526,-510)" text-rendering="geometricPrecision" font-family="sans-serif" shape-rendering="geometricPrecision" stroke-miterlimit="1.45">
      <text x="636.7948" xml:space="preserve" y="963.1591" clip-path="url(#clipPath2)" stroke="none">CU-09 Consultar</text>
      <text x="654.0455" xml:space="preserve" y="974.1849" clip-path="url(#clipPath2)" stroke="none">Lugares</text>
      <ellipse rx="42.5375" fill="none" ry="14.0252" clip-path="url(#clipPath2)" cx="670.3075" cy="965.1366"/>
    </g>
    <g fill="white" text-rendering="geometricPrecision" shape-rendering="geometricPrecision" transform="matrix(1,0,0,1,-526,-510)" stroke="white">
      <ellipse rx="50.6637" ry="18.5252" clip-path="url(#clipPath2)" cx="714.5979" cy="1034.7983" stroke="none"/>
    </g>
    <g font-size="9px" stroke-linecap="butt" transform="matrix(1,0,0,1,-526,-510)" text-rendering="geometricPrecision" font-family="sans-serif" shape-rendering="geometricPrecision" stroke-miterlimit="1.45">
      <text x="685.0931" xml:space="preserve" y="1032.8208" clip-path="url(#clipPath2)" stroke="none">CU-10 Mostrar</text>
      <text x="679.0748" xml:space="preserve" y="1043.8467" clip-path="url(#clipPath2)" stroke="none">Lugares En Mapa</text>
      <ellipse rx="50.6637" fill="none" ry="18.5252" clip-path="url(#clipPath2)" cx="714.5979" cy="1034.7983"/>
    </g>
    <g fill="white" text-rendering="geometricPrecision" shape-rendering="geometricPrecision" transform="matrix(1,0,0,1,-526,-510)" stroke="white">
      <ellipse rx="39.7575" ry="17.0126" clip-path="url(#clipPath2)" cx="911.7113" cy="884.7339" stroke="none"/>
    </g>
    <g font-size="9px" stroke-linecap="butt" transform="matrix(1,0,0,1,-526,-510)" text-rendering="geometricPrecision" font-family="sans-serif" shape-rendering="geometricPrecision" stroke-miterlimit="1.45">
      <text x="877.4493" xml:space="preserve" y="882.7564" clip-path="url(#clipPath2)" stroke="none">CU-06 Asignar y </text>
      <text x="871.4398" xml:space="preserve" y="893.7823" clip-path="url(#clipPath2)" stroke="none">Desasignar Eventos</text>
      <ellipse rx="39.7575" fill="none" ry="17.0126" clip-path="url(#clipPath2)" cx="911.7113" cy="884.7339"/>
    </g>
    <g fill="white" text-rendering="geometricPrecision" shape-rendering="geometricPrecision" transform="matrix(1,0,0,1,-526,-510)" stroke="white">
      <ellipse rx="32.2262" ry="18.5252" clip-path="url(#clipPath2)" cx="911.7113" cy="779.0718" stroke="none"/>
    </g>
    <g font-size="9px" stroke-linecap="butt" transform="matrix(1,0,0,1,-526,-510)" text-rendering="geometricPrecision" font-family="sans-serif" shape-rendering="geometricPrecision" stroke-miterlimit="1.45">
      <text x="878.1985" xml:space="preserve" y="777.0942" clip-path="url(#clipPath2)" stroke="none">CU-07 Consultar</text>
      <text x="895.4515" xml:space="preserve" y="788.1201" clip-path="url(#clipPath2)" stroke="none">Eventos</text>
      <ellipse rx="32.2262" fill="none" ry="18.5252" clip-path="url(#clipPath2)" cx="911.7113" cy="779.0718"/>
    </g>
    <g fill="white" text-rendering="geometricPrecision" shape-rendering="geometricPrecision" transform="matrix(1,0,0,1,-526,-510)" stroke="white">
      <ellipse rx="32.2262" ry="17.0126" clip-path="url(#clipPath2)" cx="893.7113" cy="968.124" stroke="none"/>
    </g>
    <g font-size="9px" stroke-linecap="butt" transform="matrix(1,0,0,1,-526,-510)" text-rendering="geometricPrecision" font-family="sans-serif" shape-rendering="geometricPrecision" stroke-miterlimit="1.45">
      <text x="867.7022" xml:space="preserve" y="966.1464" clip-path="url(#clipPath2)" stroke="none">CU-11 Editar</text>
      <text x="881.2044" xml:space="preserve" y="977.1723" clip-path="url(#clipPath2)" stroke="none">Orden</text>
      <ellipse rx="32.2262" fill="none" ry="17.0126" clip-path="url(#clipPath2)" cx="893.7113" cy="968.124"/>
    </g>
    <g fill="white" text-rendering="geometricPrecision" shape-rendering="geometricPrecision" transform="matrix(1,0,0,1,-526,-510)" stroke="white">
      <ellipse rx="50.6637" ry="18.5252" clip-path="url(#clipPath2)" cx="673.1213" cy="1101.8488" stroke="none"/>
    </g>
    <g font-size="9px" stroke-linecap="butt" transform="matrix(1,0,0,1,-526,-510)" text-rendering="geometricPrecision" font-family="sans-serif" shape-rendering="geometricPrecision" stroke-miterlimit="1.45">
      <text x="647.1122" xml:space="preserve" y="1099.8712" clip-path="url(#clipPath2)" stroke="none">CU-09 Editar</text>
      <text x="638.3539" xml:space="preserve" y="1110.8971" clip-path="url(#clipPath2)" stroke="none">Datos de Usuario</text>
      <ellipse rx="50.6637" fill="none" ry="18.5252" clip-path="url(#clipPath2)" cx="673.1213" cy="1101.8488"/>
    </g>
    <g fill="white" text-rendering="geometricPrecision" shape-rendering="geometricPrecision" transform="matrix(1,0,0,1,-526,-510)" stroke="white">
      <ellipse rx="50.6637" ry="18.5252" clip-path="url(#clipPath2)" cx="845.9254" cy="1098.8058" stroke="none"/>
    </g>
    <g font-size="9px" stroke-linecap="butt" transform="matrix(1,0,0,1,-526,-510)" text-rendering="geometricPrecision" font-family="sans-serif" shape-rendering="geometricPrecision" stroke-miterlimit="1.45">
      <text x="812.4127" xml:space="preserve" y="1096.8282" clip-path="url(#clipPath2)" stroke="none">CU-10 Consultar</text>
      <text x="811.1581" xml:space="preserve" y="1107.8541" clip-path="url(#clipPath2)" stroke="none">Datos de Usuario</text>
      <ellipse rx="50.6637" fill="none" ry="18.5252" clip-path="url(#clipPath2)" cx="845.9254" cy="1098.8058"/>
    </g>
    <g fill="white" text-rendering="geometricPrecision" shape-rendering="geometricPrecision" transform="matrix(1,0,0,1,-526,-510)" stroke="white">
      <ellipse rx="41.445" ry="14.0252" clip-path="url(#clipPath2)" cx="911.7113" cy="700.4385" stroke="none"/>
    </g>
    <g font-size="9px" stroke-linecap="butt" transform="matrix(1,0,0,1,-526,-510)" text-rendering="geometricPrecision" font-family="sans-serif" shape-rendering="geometricPrecision" stroke-miterlimit="1.45">
      <text x="882.2064" xml:space="preserve" y="698.4609" clip-path="url(#clipPath2)" stroke="none">CU-10 Mostrar</text>
      <text x="878.939" xml:space="preserve" y="709.4868" clip-path="url(#clipPath2)" stroke="none">Evento en Mapa</text>
      <ellipse rx="41.445" fill="none" ry="14.0252" clip-path="url(#clipPath2)" cx="911.7113" cy="700.4385"/>
    </g>
    <g fill="white" text-rendering="geometricPrecision" shape-rendering="geometricPrecision" transform="matrix(1,0,0,1,-526,-510)" stroke="white">
      <ellipse rx="42.5375" ry="17.0126" clip-path="url(#clipPath2)" cx="776.9475" cy="972.3034" stroke="none"/>
    </g>
    <g font-size="9px" stroke-linecap="butt" transform="matrix(1,0,0,1,-526,-510)" text-rendering="geometricPrecision" font-family="sans-serif" shape-rendering="geometricPrecision" stroke-miterlimit="1.45">
      <text x="746.4407" xml:space="preserve" y="970.3259" clip-path="url(#clipPath2)" stroke="none">CU-11 Eliminar</text>
      <text x="747.6777" xml:space="preserve" y="981.3517" clip-path="url(#clipPath2)" stroke="none">Lugar / Evento</text>
      <ellipse rx="42.5375" fill="none" ry="17.0126" clip-path="url(#clipPath2)" cx="776.9475" cy="972.3034"/>
    </g>
    <g fill="white" text-rendering="geometricPrecision" shape-rendering="geometricPrecision" transform="matrix(1,0,0,1,-526,-510)" stroke="white">
      <ellipse rx="32.2262" ry="17.0126" clip-path="url(#clipPath2)" cx="851.7113" cy="1019.5392" stroke="none"/>
    </g>
    <g font-size="9px" stroke-linecap="butt" transform="matrix(1,0,0,1,-526,-510)" text-rendering="geometricPrecision" font-family="sans-serif" shape-rendering="geometricPrecision" stroke-miterlimit="1.45">
      <text x="824.452" xml:space="preserve" y="1017.5617" clip-path="url(#clipPath2)" stroke="none">CU-11 Editar </text>
      <text x="822.9424" xml:space="preserve" y="1028.5875" clip-path="url(#clipPath2)" stroke="none">Modo de Viaje</text>
      <ellipse rx="32.2262" fill="none" ry="17.0126" clip-path="url(#clipPath2)" cx="851.7113" cy="1019.5392"/>
    </g>
    <g text-rendering="geometricPrecision" shape-rendering="geometricPrecision" transform="matrix(0.6865,0,0,0.5344,32.7488,134.9585)">
      <g clip-path="url(#clipPath4)">
        <svg xmlns:svg="http://www.w3.org/2000/svg" xmlns:sodipodi="http://sodipodi.sourceforge.net/DTD/sodipodi-0.dtd" xmlns:inkscape="http://www.inkscape.org/namespaces/inkscape" xmlns:dc="http://purl.org/dc/elements/1.1/" xmlns:cc="http://web.resource.org/cc/" xmlns:rdf="http://www.w3.org/1999/02/22-rdf-syntax-ns#" opacity="1" writing-mode="lr-tb" stop-color="rgb(0, 0, 0)" shape-rendering="auto" glyph-orientation-horizontal="0deg" color-profile="auto" lighting-color="rgb(255, 255, 255)" color="rgb(0, 0, 0)" font-weight="400" alignment-baseline="auto" font-style="normal" version="1.0" color-interpolation-filters="linearrgb" text-anchor="start" stroke-linecap="butt" color-interpolation="srgb" font-variant="normal" word-spacing="normal" fill-opacity="1" text-rendering="auto" clip-path="none" text-decoration="none" letter-spacing="normal" glyph-orientation-vertical="auto" display="inline" font-size-adjust="none" overflow="visible" fill="rgb(0, 0, 0)" font-stretch="normal" stroke-dasharray="none" inkscape:version="0.45.1" id="svg2.svg2" stroke-miterlimit="4" stop-opacity="1" color-rendering="auto" font-size="12" sodipodi:docbase="C:\Daten\alberts\projects\yfx" pointer-events="visiblepainted" mask="none" direction="ltr" baseline-shift="baseline" sodipodi:docname="uml_actor.svg" enable-background="accumulate" fill-rule="nonzero" image-rendering="auto" stroke-dashoffset="0" inkscape:output_extension="org.inkscape.output.svg.inkscape" marker-end="none" width="41" clip="auto" cursor="auto" stroke="none" filter="none" visibility="visible" kerning="auto" stroke-width="1" font-family="&quot;Arial&quot;,&quot;Helvetica&quot;,sans-serif" flood-opacity="1" clip-rule="nonzero" src="none" height="68.997391" unicode-bidi="normal" sodipodi:version="0.32" stroke-linejoin="miter" stroke-opacity="1" flood-color="rgb(0, 0, 0)" dominant-baseline="auto" marker-start="none" marker-mid="none">
  <defs id="svg2.defs4"/>
  
  <metadata id="svg2.metadata7">
    
  </metadata>
  <g inkscape:groupmode="layer" id="svg2.layer1" transform="translate(-29.5,-42.959476)" inkscape:label="Ebene 1">
    <a id="svg2.a3142" transform="matrix(1.0873906,0,0,1,-4.4741999,0)">
      <path transform="translate(11.586889,5.2908993)" style="fill:none;fill-rule:evenodd;stroke:#000000;stroke-width:1px;stroke-linecap:butt;stroke-linejoin:miter;stroke-opacity:1" sodipodi:cx="38.509369" sodipodi:cy="47.36993" sodipodi:rx="8.5197716" id="svg2.path2160" d="M 47.02914 47.36993 A 8.5197716 9.2013531 0 1 1  29.989597,47.36993 A 8.5197716 9.2013531 0 1 1  47.02914 47.36993 z" sodipodi:ry="9.2013531" sodipodi:type="arc"/>
    </a>
    <path style="fill:none" sodipodi:cx="43.962021" sodipodi:cy="48.392303" d="M 47.71072 48.392303 A 3.7486994 0 0 1 1  40.213321,48.392303 A 3.7486994 0 0 1 1  47.71072 48.392303 z" id="svg2.path3134" sodipodi:rx="3.7486994" sodipodi:ry="0" sodipodi:type="arc"/>
    <path style="fill:none;fill-rule:evenodd;stroke:#000000;stroke-width:1.24319649px;stroke-linecap:butt;stroke-linejoin:miter;stroke-opacity:1" d="M 50,61.33709 C 50,91.363211 50,92.247838 50,92.247838" id="svg2.path3136"/>
    <path style="fill:none;fill-rule:evenodd;stroke:#000000;stroke-width:1px;stroke-linecap:butt;stroke-linejoin:miter;stroke-opacity:1" d="M 69.760668,72.362183 C 69.760668,72.362183 69.760668,72.362183 50.239332,72.362183 C 30.239332,72.362183 30.239332,72.362183 30.239332,72.362183 L 30.239332,72.362183" id="svg2.path3138"/>
    <path style="fill:none;fill-rule:evenodd;stroke:#000000;stroke-width:1px;stroke-linecap:butt;stroke-linejoin:miter;stroke-opacity:1" d="M 30,111.45687 C 30,111.45687 30,111.45687 50,92.013532 C 70,111.45687 70,111.45687 70,111.45687" id="svg2.path3140"/>
  </g>
</svg>
      </g>
    </g>
    <g font-size="11px" stroke-linecap="butt" transform="matrix(1,0,0,1,-526,-510)" text-rendering="geometricPrecision" font-family="sans-serif" shape-rendering="geometricPrecision" stroke-miterlimit="1.45">
      <text x="553.8696" xml:space="preserve" y="698.8115" clip-path="url(#clipPath2)" stroke="none">Usuario</text>
      <text x="535.2131" xml:space="preserve" y="712.2876" clip-path="url(#clipPath2)" stroke="none">No Autenticado</text>
    </g>
    <g text-rendering="geometricPrecision" shape-rendering="geometricPrecision" transform="matrix(0.6865,0,0,0.5344,38.4161,354.9526)">
      <g clip-path="url(#clipPath5)">
        <svg xmlns:svg="http://www.w3.org/2000/svg" xmlns:sodipodi="http://sodipodi.sourceforge.net/DTD/sodipodi-0.dtd" xmlns:inkscape="http://www.inkscape.org/namespaces/inkscape" xmlns:dc="http://purl.org/dc/elements/1.1/" xmlns:cc="http://web.resource.org/cc/" xmlns:rdf="http://www.w3.org/1999/02/22-rdf-syntax-ns#" opacity="1" writing-mode="lr-tb" stop-color="rgb(0, 0, 0)" shape-rendering="auto" glyph-orientation-horizontal="0deg" color-profile="auto" lighting-color="rgb(255, 255, 255)" color="rgb(0, 0, 0)" font-weight="400" alignment-baseline="auto" font-style="normal" version="1.0" color-interpolation-filters="linearrgb" text-anchor="start" stroke-linecap="butt" color-interpolation="srgb" font-variant="normal" word-spacing="normal" fill-opacity="1" text-rendering="auto" clip-path="none" text-decoration="none" letter-spacing="normal" glyph-orientation-vertical="auto" display="inline" font-size-adjust="none" overflow="visible" fill="rgb(0, 0, 0)" font-stretch="normal" stroke-dasharray="none" inkscape:version="0.45.1" id="svg3.svg2" stroke-miterlimit="4" stop-opacity="1" color-rendering="auto" font-size="12" sodipodi:docbase="C:\Daten\alberts\projects\yfx" pointer-events="visiblepainted" mask="none" direction="ltr" baseline-shift="baseline" sodipodi:docname="uml_actor.svg" enable-background="accumulate" fill-rule="nonzero" image-rendering="auto" stroke-dashoffset="0" inkscape:output_extension="org.inkscape.output.svg.inkscape" marker-end="none" width="41" clip="auto" cursor="auto" stroke="none" filter="none" visibility="visible" kerning="auto" stroke-width="1" font-family="&quot;Arial&quot;,&quot;Helvetica&quot;,sans-serif" flood-opacity="1" clip-rule="nonzero" src="none" height="68.997391" unicode-bidi="normal" sodipodi:version="0.32" stroke-linejoin="miter" stroke-opacity="1" flood-color="rgb(0, 0, 0)" dominant-baseline="auto" marker-start="none" marker-mid="none">
  <defs id="svg3.defs4"/>
  
  <metadata id="svg3.metadata7">
    
  </metadata>
  <g inkscape:groupmode="layer" id="svg3.layer1" transform="translate(-29.5,-42.959476)" inkscape:label="Ebene 1">
    <a id="svg3.a3142" transform="matrix(1.0873906,0,0,1,-4.4741999,0)">
      <path transform="translate(11.586889,5.2908993)" style="fill:none;fill-rule:evenodd;stroke:#000000;stroke-width:1px;stroke-linecap:butt;stroke-linejoin:miter;stroke-opacity:1" sodipodi:cx="38.509369" sodipodi:cy="47.36993" sodipodi:rx="8.5197716" id="svg3.path2160" d="M 47.02914 47.36993 A 8.5197716 9.2013531 0 1 1  29.989597,47.36993 A 8.5197716 9.2013531 0 1 1  47.02914 47.36993 z" sodipodi:ry="9.2013531" sodipodi:type="arc"/>
    </a>
    <path style="fill:none" sodipodi:cx="43.962021" sodipodi:cy="48.392303" d="M 47.71072 48.392303 A 3.7486994 0 0 1 1  40.213321,48.392303 A 3.7486994 0 0 1 1  47.71072 48.392303 z" id="svg3.path3134" sodipodi:rx="3.7486994" sodipodi:ry="0" sodipodi:type="arc"/>
    <path style="fill:none;fill-rule:evenodd;stroke:#000000;stroke-width:1.24319649px;stroke-linecap:butt;stroke-linejoin:miter;stroke-opacity:1" d="M 50,61.33709 C 50,91.363211 50,92.247838 50,92.247838" id="svg3.path3136"/>
    <path style="fill:none;fill-rule:evenodd;stroke:#000000;stroke-width:1px;stroke-linecap:butt;stroke-linejoin:miter;stroke-opacity:1" d="M 69.760668,72.362183 C 69.760668,72.362183 69.760668,72.362183 50.239332,72.362183 C 30.239332,72.362183 30.239332,72.362183 30.239332,72.362183 L 30.239332,72.362183" id="svg3.path3138"/>
    <path style="fill:none;fill-rule:evenodd;stroke:#000000;stroke-width:1px;stroke-linecap:butt;stroke-linejoin:miter;stroke-opacity:1" d="M 30,111.45687 C 30,111.45687 30,111.45687 50,92.013532 C 70,111.45687 70,111.45687 70,111.45687" id="svg3.path3140"/>
  </g>
</svg>
      </g>
    </g>
    <g font-size="11px" stroke-linecap="butt" transform="matrix(1,0,0,1,-526,-510)" text-rendering="geometricPrecision" font-family="sans-serif" shape-rendering="geometricPrecision" stroke-miterlimit="1.45">
      <text x="559.5369" xml:space="preserve" y="918.8056" clip-path="url(#clipPath2)" stroke="none">Usuario</text>
      <text x="540.8804" xml:space="preserve" y="932.2817" clip-path="url(#clipPath2)" stroke="none">No Autenticado</text>
      <rect fill="none" x="526.3733" width="445" height="664" y="510.1691" clip-path="url(#clipPath2)"/>
      <path fill="none" d="M586.7704 586.4725 L640.5212 587.2423" clip-path="url(#clipPath2)"/>
      <path fill="none" stroke-dasharray="6,2" d="M738.1934 787.7614 L700.9017 795.6914" clip-path="url(#clipPath2)"/>
      <path stroke-dasharray="6,2" d="M696.9893 796.5234 L709.9748 799.8962 L696.9893 796.5234 L707.4788 788.1586 Z" clip-path="url(#clipPath2)" stroke="none"/>
    </g>
    <g text-rendering="geometricPrecision" shape-rendering="geometricPrecision" transform="matrix(1,0,0,1,-526,-510)">
      <path fill="none" d="M696.9893 796.5234 L709.9748 799.8962 L696.9893 796.5234 L707.4788 788.1586 Z" clip-path="url(#clipPath2)"/>
      <path fill="none" stroke-miterlimit="1.45" stroke-dasharray="6,2" d="M834.5974 614.6315 L780.0392 759.1418" clip-path="url(#clipPath2)" stroke-linecap="butt"/>
      <path stroke-miterlimit="1.45" stroke-dasharray="6,2" d="M778.6263 762.884 L788.4781 753.7767 L778.6263 762.884 L777.2516 749.5382 Z" clip-path="url(#clipPath2)" stroke-linecap="butt" stroke="none"/>
      <path fill="none" d="M778.6263 762.884 L788.4781 753.7767 L778.6263 762.884 L777.2516 749.5382 Z" clip-path="url(#clipPath2)"/>
      <path fill="none" stroke-miterlimit="1.45" stroke-dasharray="6,2" d="M897.3878 647.1152 L790.0598 761.3094" clip-path="url(#clipPath2)" stroke-linecap="butt"/>
      <path stroke-miterlimit="1.45" stroke-dasharray="6,2" d="M787.3203 764.2241 L799.9107 759.5892 L787.3203 764.2241 L791.1666 751.3709 Z" clip-path="url(#clipPath2)" stroke-linecap="butt" stroke="none"/>
      <path fill="none" d="M787.3203 764.2241 L799.9107 759.5892 L787.3203 764.2241 L791.1666 751.3709 Z" clip-path="url(#clipPath2)"/>
      <path fill="none" stroke-miterlimit="1.45" stroke-dasharray="6,2" d="M788.1053 867.782 L775.9969 802.4526" clip-path="url(#clipPath2)" stroke-linecap="butt"/>
      <path stroke-miterlimit="1.45" stroke-dasharray="6,2" d="M775.2679 798.5196 L771.5553 811.412 L775.2679 798.5196 L783.3543 809.2252 Z" clip-path="url(#clipPath2)" stroke-linecap="butt" stroke="none"/>
      <path fill="none" d="M775.2679 798.5196 L771.5553 811.412 L775.2679 798.5196 L783.3543 809.2252 Z" clip-path="url(#clipPath2)"/>
      <path fill="none" stroke-miterlimit="1.45" stroke-dasharray="6,2" d="M771.9437 683.265 L771.9437 758.5718" clip-path="url(#clipPath2)" stroke-linecap="butt"/>
      <path stroke-miterlimit="1.45" stroke-dasharray="6,2" d="M771.9437 762.5718 L777.9437 750.5718 L771.9437 762.5718 L765.9437 750.5718 Z" clip-path="url(#clipPath2)" stroke-linecap="butt" stroke="none"/>
      <path fill="none" d="M771.9437 762.5718 L777.9437 750.5718 L771.9437 762.5718 L765.9437 750.5718 Z" clip-path="url(#clipPath2)"/>
      <path fill="none" stroke-miterlimit="1.45" stroke-dasharray="6,2" d="M718.1326 883.8195 L749.0366 884.206" clip-path="url(#clipPath2)" stroke-linecap="butt"/>
      <path stroke-miterlimit="1.45" stroke-dasharray="6,2" d="M753.0363 884.256 L741.1122 878.1064 L753.0363 884.256 L740.9622 890.1055 Z" clip-path="url(#clipPath2)" stroke-linecap="butt" stroke="none"/>
      <path fill="none" d="M753.0363 884.256 L741.1122 878.1064 L753.0363 884.256 L740.9622 890.1055 Z" clip-path="url(#clipPath2)"/>
      <path fill="none" stroke-miterlimit="1.45" stroke-dasharray="6,2" d="M670.3075 901.7465 L670.3075 946.1113" clip-path="url(#clipPath2)" stroke-linecap="butt"/>
      <path stroke-miterlimit="1.45" stroke-dasharray="6,2" d="M670.3075 950.1113 L676.3075 938.1113 L670.3075 950.1113 L664.3075 938.1113 Z" clip-path="url(#clipPath2)" stroke-linecap="butt" stroke="none"/>
      <path fill="none" d="M670.3075 950.1113 L676.3075 938.1113 L670.3075 950.1113 L664.3075 938.1113 Z" clip-path="url(#clipPath2)"/>
      <path fill="none" stroke-miterlimit="1.45" stroke-dasharray="6,2" d="M703.1257 1016.7542 L681.7177 983.0828" clip-path="url(#clipPath2)" stroke-linecap="butt"/>
      <path stroke-miterlimit="1.45" stroke-dasharray="6,2" d="M679.5715 979.7073 L680.9467 993.0531 L679.5715 979.7073 L691.0732 986.6146 Z" clip-path="url(#clipPath2)" stroke-linecap="butt" stroke="none"/>
      <path fill="none" d="M679.5715 979.7073 L680.9467 993.0531 L679.5715 979.7073 L691.0732 986.6146 Z" clip-path="url(#clipPath2)"/>
      <path fill="none" stroke-miterlimit="1.45" stroke-dasharray="6,2" d="M911.7112 867.7213 L911.7112 802.597" clip-path="url(#clipPath2)" stroke-linecap="butt"/>
      <path stroke-miterlimit="1.45" stroke-dasharray="6,2" d="M911.7112 798.597 L905.7112 810.597 L911.7112 798.597 L917.7112 810.597 Z" clip-path="url(#clipPath2)" stroke-linecap="butt" stroke="none"/>
      <path fill="none" d="M911.7112 798.597 L905.7112 810.597 L911.7112 798.597 L917.7112 810.597 Z" clip-path="url(#clipPath2)"/>
      <path fill="none" stroke-miterlimit="1.45" stroke-dasharray="6,2" d="M879.4907 779.4205 L814.158 780.1275" clip-path="url(#clipPath2)" stroke-linecap="butt"/>
      <path stroke-miterlimit="1.45" stroke-dasharray="6,2" d="M810.1583 780.1708 L822.2225 786.0405 L810.1583 780.1708 L822.0926 774.0413 Z" clip-path="url(#clipPath2)" stroke-linecap="butt" stroke="none"/>
      <path fill="none" d="M810.1583 780.1708 L822.2225 786.0405 L810.1583 780.1708 L822.0926 774.0413 Z" clip-path="url(#clipPath2)"/>
      <path fill="none" stroke-miterlimit="1.45" stroke-dasharray="6,2" d="M876.1738 953.8511 L813.3519 902.7238" clip-path="url(#clipPath2)" stroke-linecap="butt"/>
      <path stroke-miterlimit="1.45" stroke-dasharray="6,2" d="M810.2495 900.1989 L815.7693 912.4272 L810.2495 900.1989 L823.3441 903.1201 Z" clip-path="url(#clipPath2)" stroke-linecap="butt" stroke="none"/>
      <path fill="none" d="M810.2495 900.1989 L815.7693 912.4272 L810.2495 900.1989 L823.3441 903.1201 Z" clip-path="url(#clipPath2)"/>
      <path fill="none" stroke-miterlimit="1.45" stroke-dasharray="6,2" d="M723.7264 1100.9576 L790.3211 1099.7849" clip-path="url(#clipPath2)" stroke-linecap="butt"/>
      <path stroke-miterlimit="1.45" stroke-dasharray="6,2" d="M794.3205 1099.7145 L782.2167 1093.9266 L794.3205 1099.7145 L782.4279 1105.9248 Z" clip-path="url(#clipPath2)" stroke-linecap="butt" stroke="none"/>
      <path fill="none" d="M794.3205 1099.7145 L782.2167 1093.9266 L794.3205 1099.7145 L782.4279 1105.9248 Z" clip-path="url(#clipPath2)"/>
      <path fill="none" stroke-miterlimit="1.45" stroke-dasharray="6,2" d="M911.7112 714.4637 L911.7112 755.5465" clip-path="url(#clipPath2)" stroke-linecap="butt"/>
      <path stroke-miterlimit="1.45" stroke-dasharray="6,2" d="M911.7112 759.5465 L917.7112 747.5465 L911.7112 759.5465 L905.7112 747.5465 Z" clip-path="url(#clipPath2)" stroke-linecap="butt" stroke="none"/>
      <path fill="none" d="M911.7112 759.5465 L917.7112 747.5465 L911.7112 759.5465 L905.7112 747.5465 Z" clip-path="url(#clipPath2)"/>
      <path fill="none" stroke-miterlimit="1.45" stroke-dasharray="6,2" d="M779.7197 955.327 L787.671 906.634" clip-path="url(#clipPath2)" stroke-linecap="butt"/>
      <path stroke-miterlimit="1.45" stroke-dasharray="6,2" d="M788.3157 902.6863 L780.4601 913.5624 L788.3157 902.6863 L792.3032 915.4965 Z" clip-path="url(#clipPath2)" stroke-linecap="butt" stroke="none"/>
      <path fill="none" d="M788.3157 902.6863 L780.4601 913.5624 L788.3157 902.6863 L792.3032 915.4965 Z" clip-path="url(#clipPath2)"/>
      <path fill="none" stroke-miterlimit="1.45" stroke-dasharray="6,2" d="M844.2859 1002.9844 L800.7687 905.9621" clip-path="url(#clipPath2)" stroke-linecap="butt"/>
      <path stroke-miterlimit="1.45" stroke-dasharray="6,2" d="M799.1317 902.3124 L798.5681 915.717 L799.1317 902.3124 L809.5172 910.806 Z" clip-path="url(#clipPath2)" stroke-linecap="butt" stroke="none"/>
      <path fill="none" d="M799.1317 902.3124 L798.5681 915.717 L799.1317 902.3124 L809.5172 910.806 Z" clip-path="url(#clipPath2)"/>
      <path fill="none" stroke-miterlimit="1.45" d="M586.7704 663.2272 L640.7675 663.2272" clip-path="url(#clipPath2)" stroke-linecap="butt"/>
      <path fill="none" stroke-miterlimit="1.45" d="M592.4521 870.6879 L652.3181 816.9524" clip-path="url(#clipPath2)" stroke-linecap="butt"/>
      <path fill="none" stroke-miterlimit="1.45" d="M590.4692 864.7062 L667.1964 746.1281" clip-path="url(#clipPath2)" stroke-linecap="butt"/>
      <path fill="none" stroke-miterlimit="1.45" d="M586.5173 901.7694 L665.2012 1083.5513" clip-path="url(#clipPath2)" stroke-linecap="butt"/>
    </g>
  </g>
</svg>
